<?xml version="1.0" standalone="no"?>
<!DOCTYPE svg PUBLIC "-//W3C//DTD SVG 20010904//EN"
 "http://www.w3.org/TR/2001/REC-SVG-20010904/DTD/svg10.dtd">
<svg version="1.0" xmlns="http://www.w3.org/2000/svg"
 width="243.000000pt" height="243.000000pt" viewBox="0 0 243.000000 243.000000"
 preserveAspectRatio="xMidYMid meet">
<metadata>
Created by potrace 1.11, written by Peter Selinger 2001-2013
</metadata>
<g transform="translate(0.000000,243.000000) scale(0.100000,-0.100000)"
fill="#000000" stroke="none">
<path d="M1213 2242 c-13 -2 -23 -10 -23 -17 0 -8 -5 -17 -12 -21 -7 -5 -9 -1
-6 12 4 16 0 19 -21 18 -14 -1 -34 -3 -44 -3 -12 -1 -17 -9 -16 -28 1 -16 -4
-41 -10 -58 l-12 -30 -25 40 c-13 22 -24 49 -24 59 0 17 -6 18 -50 13 -28 -3
-56 -10 -63 -14 -18 -11 -58 -15 -76 -7 -45 21 -101 4 -101 -30 0 -9 -5 -16
-11 -16 -6 0 -9 7 -6 15 5 11 -2 14 -26 13 -31 -1 -33 -3 -29 -31 3 -17 7 -24
12 -17 10 17 56 8 52 -10 -3 -12 0 -11 15 2 18 16 75 19 89 5 7 -7 2 -9 -38
-10 -13 -1 -26 -5 -29 -10 -9 -12 -62 0 -54 12 3 5 -2 8 -10 7 -17 -2 -33 -16
-18 -16 5 0 10 -7 10 -15 0 -22 -14 -18 -20 5 -4 17 -9 19 -32 10 -17 -7 -24
-7 -20 0 3 6 13 10 21 10 8 0 14 9 14 20 0 13 -7 20 -20 20 -11 0 -20 -5 -20
-11 0 -6 -7 -9 -15 -5 -9 3 -15 0 -15 -9 0 -14 -11 -18 -52 -18 -15 0 -15 -2
-1 -24 10 -15 22 -22 31 -18 12 5 12 1 -2 -14 -20 -22 -41 -18 -32 5 4 10 -4
14 -28 14 -28 0 -34 -4 -38 -25 -3 -13 -2 -22 2 -20 4 3 13 -2 20 -10 10 -12
7 -15 -14 -21 -14 -3 -23 -10 -20 -15 10 -16 -13 -9 -37 11 -13 11 -19 20 -14
19 24 -3 33 2 37 24 4 18 0 22 -23 22 -19 0 -25 -3 -18 -11 10 -12 -16 -28
-31 -19 -4 3 -13 -9 -19 -26 -9 -28 -9 -30 9 -24 12 4 20 2 20 -4 0 -6 -6 -11
-12 -11 -9 0 -8 -4 2 -10 8 -5 10 -10 4 -10 -6 0 -17 7 -24 15 -7 8 -23 15
-36 15 -19 0 -26 -7 -30 -30 -8 -37 -24 -51 -64 -52 -18 -1 -26 -4 -19 -9 9
-5 8 -11 -4 -24 -10 -9 -17 -14 -17 -10 0 4 -7 0 -15 -9 -8 -8 -15 -22 -15
-30 0 -19 36 -22 43 -3 2 6 7 9 11 6 13 -12 -5 -34 -29 -35 -14 -1 -25 2 -25
6 0 4 -11 10 -25 12 -21 4 -23 3 -14 -9 9 -10 8 -18 -5 -31 -22 -25 -20 -48 3
-48 11 0 17 4 15 8 -7 10 29 27 54 25 23 -1 29 -12 13 -21 -5 -4 -12 0 -14 6
-4 10 -6 10 -6 1 -2 -22 -4 -27 -22 -47 -18 -19 -56 -15 -44 4 4 6 -5 10 -19
10 -20 0 -24 -4 -19 -17 5 -12 2 -15 -9 -11 -12 5 -14 0 -10 -20 4 -19 2 -24
-10 -20 -11 5 -14 0 -10 -18 5 -29 38 -33 47 -5 3 12 12 18 20 15 17 -7 8 -34
-11 -34 -8 0 -14 -7 -14 -15 0 -18 -31 -20 -49 -2 -11 10 -12 9 -5 -3 5 -8 7
-23 5 -34 -1 -11 2 -16 8 -12 7 4 11 -1 11 -13 0 -12 -4 -21 -8 -21 -5 0 -9
-6 -10 -12 -6 -61 -6 -86 0 -82 5 3 8 -1 9 -8 1 -20 7 -49 11 -53 2 -2 12 -5
23 -7 14 -2 20 2 19 15 -1 9 5 17 13 17 8 0 12 -4 9 -9 -3 -5 1 -14 9 -21 18
-15 20 -40 4 -40 -6 0 -9 7 -6 14 4 10 1 13 -9 9 -15 -6 -19 -19 -6 -27 5 -3
8 -25 7 -50 0 -30 3 -42 9 -36 6 6 17 10 26 10 9 0 11 -3 5 -8 -17 -12 -11
-46 8 -50 11 -2 16 -9 13 -17 -3 -9 0 -12 10 -8 19 7 44 -15 37 -33 -4 -10 0
-12 13 -7 13 5 16 3 12 -9 -5 -11 -1 -14 18 -10 13 2 24 11 24 19 0 9 6 13 14
10 7 -3 20 3 29 14 10 11 12 19 5 19 -6 0 -3 9 7 20 10 11 15 20 11 20 -4 0
-15 -9 -24 -19 -16 -17 -20 -18 -51 -4 -35 15 -36 22 -4 27 10 2 21 -4 25 -13
6 -14 7 -13 7 2 1 10 5 15 11 12 5 -3 7 0 4 8 -3 9 6 18 28 25 21 7 24 10 8 7
-14 -2 -32 0 -40 5 -12 8 -9 10 12 10 20 0 26 4 22 15 -7 18 41 81 67 88 12 3
18 3 15 0 -3 -4 4 -17 16 -31 23 -23 23 -24 3 -38 -11 -8 -28 -13 -38 -10 -10
2 -14 0 -11 -6 4 -6 -2 -7 -17 -3 -22 7 -22 7 -6 -10 17 -16 17 -18 1 -36 -10
-11 -12 -19 -6 -19 7 0 12 3 12 8 0 4 9 13 20 20 17 10 21 8 34 -17 20 -38 11
-74 -18 -66 -14 4 -17 3 -8 -3 17 -12 -36 -35 -83 -36 -30 -1 -34 -4 -32 -27
2 -22 6 -25 34 -24 18 0 36 5 40 9 4 5 3 6 -3 3 -7 -4 -14 -1 -17 7 -3 8 11
21 39 34 54 27 61 27 67 5 4 -16 5 -16 6 0 2 35 26 10 26 -26 0 -37 12 -43 44
-23 10 7 12 5 6 -3 -6 -10 -3 -11 15 -1 15 8 20 8 16 1 -4 -6 -1 -11 6 -11 7
0 0 -8 -15 -19 -32 -21 -81 -22 -83 0 -1 7 -2 22 -3 32 0 10 -6 15 -11 12 -6
-3 -10 -1 -10 5 0 8 -4 7 -13 -2 -18 -18 -28 -48 -17 -48 18 0 48 -33 43 -46
-3 -8 0 -14 7 -14 7 0 9 -8 5 -19 -5 -16 -2 -18 15 -14 14 4 20 1 20 -12 0
-10 -5 -15 -13 -12 -8 3 -12 -6 -13 -28 0 -30 1 -32 18 -21 16 9 23 7 43 -16
12 -15 24 -31 26 -37 6 -15 126 -23 135 -9 4 7 3 8 -4 4 -6 -4 -26 1 -44 10
-30 16 -31 17 -13 30 15 11 20 11 27 1 6 -9 8 -9 8 1 0 21 20 13 30 -13 11
-30 -6 -66 -27 -58 -8 3 -13 -3 -13 -16 0 -14 6 -21 19 -21 11 0 21 -5 23 -12
2 -6 14 -13 26 -15 16 -2 22 2 22 15 0 10 6 24 13 31 10 10 9 12 -3 9 -8 -2
-14 5 -14 17 0 12 5 19 14 17 8 -2 0 11 -17 28 -37 36 -41 55 -17 64 9 4 14 9
11 13 -4 3 -2 15 4 25 8 15 14 17 22 9 9 -9 8 -14 -3 -21 -13 -8 -12 -10 3
-10 14 0 17 -9 17 -54 0 -30 -5 -58 -10 -61 -8 -5 -8 -11 -1 -19 6 -7 8 -28 5
-47 -6 -33 -5 -34 31 -37 29 -2 35 1 33 15 -4 22 -29 43 -42 36 -5 -4 -6 -1
-2 6 4 6 12 9 17 6 5 -4 9 1 9 9 0 9 -5 16 -12 16 -19 0 8 23 29 25 10 0 24 4
31 9 7 4 30 -3 55 -18 23 -14 59 -34 80 -46 20 -11 37 -27 37 -35 0 -8 9 -15
20 -15 14 0 20 7 20 21 0 11 -4 17 -10 14 -17 -11 -172 83 -166 101 3 6 0 16
-6 22 -23 23 -1 41 44 37 l43 -3 -32 11 c-54 20 -60 33 -32 64 l24 26 -25 -16
c-32 -22 -40 -21 -40 4 0 14 5 19 14 16 10 -4 13 -1 9 9 -3 9 1 14 13 15 15 0
16 2 4 7 -8 4 -16 22 -17 40 -2 29 1 32 20 27 22 -5 22 -5 0 6 -13 7 -23 15
-23 19 0 12 64 90 74 90 5 0 25 -12 43 -26 24 -18 33 -32 30 -44 -4 -15 1 -18
22 -18 36 1 88 -32 69 -43 -7 -5 -23 -9 -35 -9 -12 0 -25 -4 -28 -10 -3 -5 0
-8 7 -6 38 12 69 16 64 8 -3 -5 14 -9 37 -8 38 1 42 -1 43 -24 2 -37 -16 -69
-34 -63 -10 4 -13 2 -8 -5 4 -7 2 -12 -4 -12 -7 0 -10 6 -7 13 3 8 1 20 -4 28
-6 10 -9 7 -9 -13 0 -26 -14 -38 -22 -20 -2 4 -24 25 -48 47 l-45 40 48 -50
c26 -28 47 -59 47 -68 0 -11 -4 -15 -12 -11 -7 5 -8 3 -3 -5 5 -9 10 -10 18
-2 7 7 16 7 28 0 15 -7 17 -6 13 6 -4 10 0 15 10 15 9 0 16 -5 16 -12 0 -27
15 6 17 40 6 75 6 73 21 58 13 -12 12 -20 -1 -59 -15 -45 -15 -45 9 -50 13 -2
25 1 27 7 2 6 6 9 9 6 57 -67 68 -84 64 -96 -3 -7 -1 -16 4 -19 14 -8 12 -42
-2 -51 -6 -4 -9 -3 -6 2 4 5 -8 9 -25 10 l-32 1 35 -14 34 -15 -24 -14 c-33
-18 -38 -17 -49 4 -15 28 -3 57 27 69 26 10 26 10 -8 8 -19 -2 -38 2 -41 8 -4
6 -15 7 -25 2 -11 -5 -25 -7 -33 -6 -11 2 -11 0 0 -12 8 -8 18 -14 24 -14 17
3 11 -28 -15 -72 -14 -25 -31 -46 -37 -48 -15 -5 -46 54 -39 74 4 11 2 13 -9
9 -8 -3 -15 -1 -15 4 0 6 -4 10 -10 10 -5 0 -10 -13 -10 -30 0 -21 4 -28 14
-24 8 3 19 -3 26 -15 6 -12 8 -21 4 -21 -3 0 -1 -7 6 -15 9 -11 10 -18 1 -28
-14 -18 -5 -26 24 -21 13 2 27 0 30 -6 3 -5 11 -10 18 -10 8 0 8 3 -1 12 -18
18 -15 28 9 28 13 0 18 -4 13 -12 -4 -6 -3 -8 3 -5 18 11 78 -37 77 -62 0 -14
4 -20 12 -17 8 3 11 0 7 -9 -3 -8 -9 -12 -14 -9 -5 3 -12 -2 -15 -10 -3 -9
-12 -16 -18 -16 -16 0 -13 -43 2 -48 7 -2 12 -13 12 -25 0 -11 3 -17 6 -14 4
3 16 2 27 -4 14 -8 18 -8 13 0 -4 6 -2 11 5 11 7 0 2 9 -11 20 -31 27 -32 65
-3 81 21 11 27 9 55 -17 l31 -29 -29 39 c-16 22 -28 41 -26 43 1 2 2 4 1 6 -7
22 -6 45 2 61 10 20 10 20 -5 2 -8 -10 -18 -24 -21 -30 -3 -8 -7 -7 -11 2 -3
6 -10 9 -15 6 -14 -8 -49 25 -49 47 0 32 20 31 31 0 6 -17 15 -31 19 -31 5 0
3 12 -5 27 -8 15 -11 31 -7 37 4 6 7 15 7 21 0 11 52 31 60 23 3 -3 6 -22 7
-41 1 -29 4 -35 14 -26 11 9 15 7 20 -6 5 -12 0 -23 -16 -35 -13 -10 -25 -26
-26 -35 -2 -13 7 -8 31 15 l33 32 34 -22 33 -22 -26 24 c-32 27 -27 48 20 92
l31 29 42 -22 c24 -12 61 -35 83 -50 46 -32 47 -46 8 -104 -14 -20 -24 -40
-21 -43 3 -3 18 16 32 41 15 25 29 45 31 45 3 0 5 -16 5 -36 0 -19 -4 -33 -9
-30 -5 4 -7 -3 -4 -14 4 -16 1 -18 -22 -14 -16 3 -24 1 -21 -5 4 -5 1 -13 -5
-17 -8 -4 -9 -3 -5 4 9 14 -40 35 -57 25 -7 -3 -9 -3 -5 2 4 4 3 14 -3 21 -9
10 -7 15 5 20 9 3 13 10 10 16 -3 5 -11 4 -20 -3 -11 -9 -14 -9 -14 1 0 8 -3
10 -6 7 -4 -3 -16 -1 -28 5 -21 11 -21 11 -2 -11 l19 -21 -34 -1 -34 -2 33 -6
32 -6 -20 -40 c-13 -25 -15 -33 -5 -20 9 11 21 19 26 17 5 -1 9 4 9 12 0 8 5
18 11 22 8 5 10 -4 7 -29 -3 -29 -1 -34 9 -25 8 6 13 7 13 0 0 -10 -30 -39
-37 -34 -1 1 -4 2 -5 1 -20 -6 -39 -6 -43 1 -3 4 -14 6 -25 3 -12 -3 -29 2
-42 13 l-21 19 18 -27 c13 -22 14 -28 4 -28 -11 0 -11 -2 -1 -8 8 -6 2 -13
-22 -24 -26 -13 -36 -14 -46 -5 -10 9 -11 9 -6 0 4 -7 3 -13 -3 -13 -5 0 -12
6 -14 13 -3 6 -6 -5 -6 -26 -1 -23 3 -36 9 -32 6 3 10 -3 10 -14 0 -12 5 -21
11 -21 6 0 9 -7 5 -15 -3 -9 0 -15 8 -15 8 0 21 -2 29 -5 10 -5 13 1 9 26 -3
23 -7 28 -14 18 -7 -11 -8 -10 -4 4 3 11 0 20 -9 23 -8 4 -15 12 -15 20 0 15
54 47 64 37 12 -12 6 -24 -20 -33 -22 -9 -24 -13 -14 -25 7 -8 19 -15 26 -15
17 0 76 -79 68 -91 -3 -5 6 -9 20 -9 16 0 26 6 26 15 0 8 4 15 8 15 4 0 8 15
8 34 0 24 -4 32 -13 29 -9 -4 -11 0 -7 11 4 12 0 16 -15 16 -20 0 -27 -18 -22
-57 3 -18 -16 -16 -23 2 -3 8 0 15 7 15 8 0 7 4 -3 9 -8 6 -17 8 -21 5 -4 -2
-10 3 -13 13 -8 20 20 53 46 53 10 0 18 5 18 10 0 6 7 10 15 10 8 0 15 -5 15
-11 0 -8 4 -8 13 -1 6 5 27 8 45 6 20 -2 31 0 27 6 -3 6 0 10 7 10 8 1 6 6 -6
15 -26 20 -8 38 28 29 32 -8 44 -24 18 -24 -12 0 -21 -8 -24 -23 -4 -19 0 -22
26 -21 79 4 77 3 72 27 -3 16 1 24 10 24 8 0 14 -8 14 -18 0 -22 46 -31 62
-12 6 8 20 12 31 9 13 -3 21 1 24 13 4 14 13 18 44 16 29 -2 37 1 30 8 -19 19
-12 30 14 25 21 -4 24 -2 20 13 -4 11 1 21 13 28 11 6 21 8 24 6 2 -2 5 6 5
18 1 12 7 23 13 25 15 5 12 52 -4 52 -7 0 -19 7 -26 15 -10 13 -9 15 11 15 17
0 20 -3 10 -9 -9 -6 -4 -10 18 -13 28 -4 31 -2 32 21 1 14 1 30 0 34 -1 5 3 6
8 3 5 -4 13 -1 16 5 4 5 13 8 20 5 8 -3 14 6 17 25 5 29 -6 40 -15 17 -4 -10
-8 -9 -16 2 -8 12 -3 19 25 33 33 17 54 16 54 -3 0 -5 -8 -11 -17 -13 -16 -4
-16 -5 -1 -6 11 -1 14 -7 11 -19 -4 -16 0 -18 26 -14 17 2 28 8 25 13 -3 5 2
9 11 9 9 0 19 9 22 21 4 14 12 19 23 16 13 -3 16 0 13 14 -3 11 0 19 6 19 6 0
11 7 11 15 0 8 5 15 10 15 6 0 10 9 10 20 0 11 -5 20 -11 20 -7 0 -18 8 -25
18 -12 15 -12 13 -4 -15 8 -31 6 -37 -12 -34 -4 0 -5 -5 -2 -12 3 -8 -2 -14
-11 -14 -8 0 -15 5 -15 11 0 6 -4 5 -9 -3 -7 -10 -15 -4 -35 25 -35 52 -33 72
7 65 4 -1 5 10 3 24 -4 19 0 25 12 25 13 0 14 2 3 9 -9 6 -10 11 -2 15 6 4 11
2 11 -3 0 -6 8 -11 18 -12 13 0 12 -2 -5 -9 -13 -5 -21 -17 -20 -29 0 -11 4
-18 8 -15 4 2 10 -2 12 -8 4 -10 6 -10 6 -1 1 7 8 10 18 6 12 -5 15 -2 10 10
-3 9 -2 17 4 17 6 0 6 7 -1 19 -13 25 -13 31 1 31 5 0 8 -4 5 -9 -3 -5 1 -12
10 -15 8 -3 12 -11 8 -17 -4 -7 1 -19 12 -27 18 -14 18 -14 -3 -8 -18 6 -20 4
-16 -14 3 -11 8 -20 12 -21 3 0 13 -2 22 -4 12 -2 15 2 11 17 -3 11 1 23 7 28
7 4 13 22 13 41 1 19 6 38 12 42 6 5 1 5 -11 2 -19 -5 -22 -3 -16 12 4 10 10
20 14 23 7 5 12 53 10 100 -1 22 -6 26 -30 25 -22 0 -27 -3 -19 -12 8 -10 6
-13 -8 -13 -15 0 -16 -2 -5 -9 8 -5 9 -11 3 -15 -6 -4 -14 0 -19 7 -4 8 -14
16 -21 18 -10 3 -6 15 13 44 l25 40 -29 -34 c-20 -23 -35 -32 -46 -27 -12 4
-16 2 -12 -8 3 -8 2 -16 -4 -18 -5 -2 0 -11 11 -20 11 -10 20 -14 20 -9 0 9
57 -2 68 -14 3 -3 -3 -15 -14 -26 -19 -22 -19 -22 2 -11 19 10 23 8 27 -10 3
-12 2 -29 -3 -38 -5 -10 -6 -20 -3 -24 13 -12 -13 -6 -35 10 -12 8 -27 12 -33
8 -6 -3 -3 5 6 20 16 24 16 26 1 20 -11 -4 -16 0 -17 12 0 11 -6 5 -13 -15 -6
-18 -25 -45 -41 -58 -27 -24 -29 -24 -36 -7 -6 18 -7 18 -10 -1 -3 -16 -12 -7
-42 40 -43 69 -45 78 -14 93 20 10 20 11 2 9 -16 -2 -20 3 -18 27 3 45 21 56
44 27 15 -18 17 -27 8 -37 -9 -11 -8 -14 5 -14 12 0 16 -11 18 -52 l1 -53 6
55 6 55 29 -43 c16 -23 31 -41 33 -38 2 2 -8 21 -22 42 -20 29 -23 40 -13 47
9 6 8 7 -4 3 -21 -6 -23 5 -5 23 10 10 9 12 -3 9 -9 -2 -16 6 -18 22 -2 18 0
21 6 11 8 -11 10 -11 15 0 4 11 9 9 22 -6 l17 -20 -7 20 c-13 35 -14 68 -4 88
6 10 8 21 5 24 -3 4 -11 -8 -17 -26 -7 -18 -14 -29 -18 -24 -11 14 -31 14 -37
-2 -4 -8 -11 -15 -16 -15 -6 0 -4 7 3 17 8 9 13 18 12 20 -2 1 -3 9 -3 16 0 6
5 4 11 -6 13 -22 29 -14 22 11 -4 19 9 34 39 45 13 4 15 2 11 -10 -4 -11 -2
-14 5 -9 7 4 12 13 12 21 0 15 25 27 35 17 4 -4 12 -7 17 -7 6 0 13 -6 16 -13
5 -17 -20 -11 -35 8 -7 8 -13 10 -13 4 0 -6 9 -19 21 -30 33 -29 43 -55 28
-65 -11 -7 -11 -9 -1 -9 7 0 11 -3 9 -7 -3 -5 7 -8 21 -8 22 0 27 5 28 27 1
19 -3 25 -13 21 -8 -3 -23 4 -34 16 -17 18 -18 22 -5 27 8 3 19 4 23 1 4 -3 8
5 8 17 0 17 -5 21 -21 18 -14 -2 -27 4 -38 19 -20 30 -21 45 0 25 8 -9 20 -16
26 -16 6 0 9 3 5 6 -3 3 -1 18 4 32 8 22 8 23 -6 12 -12 -10 -15 -10 -15 4 0
9 -5 16 -11 16 -5 0 -7 5 -4 10 3 6 0 10 -8 10 -11 0 -14 12 -12 43 1 37 -1
43 -19 43 -12 -1 -22 7 -25 19 -3 11 -13 20 -21 20 -11 0 -15 11 -15 37 0 20
-4 34 -9 31 -5 -3 -7 6 -4 20 4 19 1 24 -10 19 -12 -4 -14 0 -10 16 4 13 2 20
-4 16 -5 -3 -12 3 -15 15 -3 12 -10 21 -16 21 -18 0 -46 31 -40 46 3 8 0 14
-6 14 -6 0 -8 8 -4 18 6 14 4 15 -9 4 -16 -13 -48 -7 -48 10 0 6 -9 8 -20 5
-19 -5 -20 -2 -14 29 6 31 4 36 -16 41 -17 5 -21 11 -18 34 3 20 1 26 -7 19
-12 -10 -44 5 -33 16 10 9 -18 35 -34 32 -8 -2 -13 6 -12 18 0 17 -5 21 -28
20 -15 -1 -26 -5 -24 -11 2 -5 -1 -20 -5 -32 -8 -23 4 -33 16 -13 14 22 34 10
33 -20 -1 -23 -5 -29 -15 -25 -8 3 -19 5 -24 5 -6 0 -7 5 -4 11 5 7 -5 8 -29
4 -33 -7 -41 -3 -93 42 -32 27 -65 53 -73 57 -8 4 2 -7 22 -24 21 -17 55 -47
75 -66 l38 -34 -64 0 c-51 0 -62 3 -58 14 4 10 1 13 -8 10 -7 -3 -15 2 -18 13
-4 16 -5 16 -6 1 -1 -15 -5 -16 -26 -6 -19 9 -25 18 -23 40 4 47 25 56 37 16
l11 -33 -3 33 c-5 45 12 56 72 48 44 -6 50 -4 48 12 -1 17 -37 27 -37 9 0 -13
-65 -3 -66 11 -1 6 -2 17 -3 22 0 6 -10 10 -20 10 -11 0 -22 4 -26 10 -3 5
-12 7 -20 3 -8 -3 -15 0 -15 5 0 6 -22 9 -55 7 -31 -2 -53 1 -49 6 3 5 -10 9
-28 9 -19 0 -43 7 -54 16 -10 8 -13 12 -5 8 9 -5 12 -3 7 5 -4 6 -13 8 -19 4
-7 -4 -23 -6 -36 -4 -21 2 -23 -1 -19 -23 7 -33 -20 -55 -63 -50 -38 5 -71 22
-64 34 7 12 75 10 75 -2 0 -18 25 16 26 36 2 22 -16 26 -73 18z m24 -34 c-3
-7 -5 -2 -5 12 0 14 2 19 5 13 2 -7 2 -19 0 -25z m-297 -28 c14 0 18 5 14 18
-3 9 1 6 9 -7 12 -20 15 -21 20 -7 10 25 23 19 46 -20 25 -42 27 -67 6 -84
-10 -9 -15 -9 -15 -1 0 6 6 11 13 12 9 0 9 2 -1 6 -6 2 -9 10 -6 15 4 6 3 8
-2 5 -6 -3 -16 -1 -24 4 -13 8 -13 10 0 20 13 9 12 10 -2 5 -11 -3 -18 0 -19
7 0 9 -2 9 -6 -1 -2 -6 -9 -10 -14 -6 -5 3 -9 0 -9 -5 0 -18 -47 -12 -54 5 -4
9 -4 19 -1 22 3 3 5 -1 5 -8 0 -11 3 -11 12 -2 10 10 10 15 -1 21 -9 6 -10 14
-5 22 7 11 9 10 12 -3 2 -10 12 -18 22 -18z m187 -17 c-28 -28 -42 -28 -31 1
7 17 44 38 53 30 3 -3 -7 -17 -22 -31z m-287 -5 c0 -6 -6 -5 -15 2 -8 7 -15
14 -15 16 0 2 7 1 15 -2 8 -4 15 -11 15 -16z m-98 -10 c-7 -7 -12 -8 -12 -2 0
14 12 26 19 19 2 -3 -1 -11 -7 -17z m135 7 c0 -8 -4 -12 -9 -9 -5 3 -6 10 -3
15 9 13 12 11 12 -6z m330 0 c20 -8 34 -18 31 -21 -11 -11 -63 -11 -70 0 -5 7
-8 6 -8 -4 0 -13 -1 -13 -10 0 -8 13 -10 12 -10 -2 0 -13 -8 -18 -27 -18 l-28
1 35 29 c40 35 39 35 87 15z m123 11 c0 -19 -25 -66 -34 -63 -20 7 -18 35 4
42 11 3 18 11 15 16 -4 5 -1 9 4 9 6 0 11 -2 11 -4z m81 -6 c5 0 9 -5 9 -11 0
-5 -6 -7 -12 -3 -7 4 -4 -3 7 -16 l20 -23 -27 5 c-15 3 -25 1 -22 -3 3 -5 -2
-9 -10 -9 -11 0 -16 9 -16 28 0 33 8 45 28 37 7 -3 18 -5 23 -5z m98 -1 c34
-12 40 -44 9 -44 -9 0 -20 -4 -24 -8 -4 -4 3 -7 15 -7 14 0 20 -4 15 -12 -4
-7 -3 -8 5 -4 7 4 14 -2 19 -15 l9 -23 5 22 c4 14 2 20 -4 15 -7 -3 -8 -1 -4
5 7 11 46 17 46 7 0 -2 -5 -16 -12 -30 -14 -32 -35 -32 -79 0 -35 27 -45 59
-26 85 7 8 2 6 -11 -4 -19 -16 -22 -17 -22 -3 0 8 6 18 13 20 6 3 12 6 13 6 1
1 15 -4 33 -10z m56 -10 c-4 -6 2 -13 14 -16 27 -7 27 -23 0 -23 -11 0 -18 4
-15 9 4 5 1 11 -6 13 -10 4 -4 28 8 28 3 0 2 -5 -1 -11z m-225 -54 c-7 -9 -8
-15 0 -20 13 -8 13 -35 -1 -35 -6 0 -9 7 -6 14 4 10 1 13 -9 9 -18 -7 -18 9 3
55 15 33 17 35 20 14 3 -13 -1 -29 -7 -37z m-400 15 c8 -5 11 -12 7 -16 -4 -4
-15 0 -24 9 -18 18 -8 23 17 7z m297 4 c-3 -3 -12 -4 -19 -1 -8 3 -5 6 6 6 11
1 17 -2 13 -5z m-383 -22 c13 -21 -9 -38 -29 -22 -8 7 -15 18 -15 25 0 17 33
14 44 -3z m-96 -3 c-2 -6 9 -12 24 -13 16 -1 35 -9 44 -17 14 -15 13 -19 -10
-45 -22 -24 -27 -27 -36 -14 -7 11 -10 11 -10 2 0 -7 -10 -17 -22 -22 -18 -7
-19 -9 -5 -9 9 -1 17 -5 17 -11 0 -14 -13 -12 -36 5 -18 15 -18 16 11 40 17
14 38 24 47 21 13 -3 15 1 9 18 -5 11 -16 20 -25 20 -38 -3 -41 -5 -23 -15 17
-10 16 -12 -7 -30 -30 -23 -33 -24 -39 -1 -4 13 -5 13 -6 -4 -1 -26 -24 -47
-46 -42 -13 2 -11 10 11 41 18 27 31 37 44 34 15 -4 17 0 14 22 -4 21 -3 24 7
14 18 -18 34 -16 19 2 -10 12 -10 15 4 15 9 0 15 -5 14 -11z m215 -21 c-5 -34
-10 -45 -17 -37 -7 7 6 69 14 69 5 0 6 -15 3 -32z m160 25 c10 -9 56 -10 51
-1 -3 4 9 8 26 8 17 0 30 -3 28 -7 -30 -62 -45 -83 -60 -83 -10 0 -17 -3 -17
-7 4 -27 -2 -31 -28 -18 -14 7 -30 20 -35 27 -5 8 -7 4 -4 -14 3 -20 1 -25
-10 -21 -8 3 -14 18 -14 35 0 20 4 27 12 22 8 -5 9 -2 5 9 -4 10 1 22 14 31
20 13 20 14 2 19 -16 4 -15 5 3 6 11 0 24 -2 27 -6z m147 -12 c0 -5 -14 -21
-31 -35 -17 -14 -26 -26 -21 -26 5 0 15 7 22 15 18 22 32 18 26 -7 -4 -16 -2
-14 6 5 14 32 19 33 42 8 16 -18 16 -20 -2 -32 -11 -8 -20 -18 -20 -24 0 -5
-6 -11 -14 -13 -9 -2 -8 0 2 7 8 6 13 11 10 12 -3 0 -13 2 -22 4 -10 2 -18 -1
-18 -7 0 -6 -7 -4 -17 3 -14 12 -16 12 -11 -2 4 -9 1 -16 -8 -16 -7 0 -11 4
-8 9 3 4 0 8 -6 8 -7 0 -8 5 -3 13 4 6 8 14 8 17 1 3 9 20 18 38 16 29 47 45
47 23z m115 -16 c-16 -13 -32 -22 -34 -19 -3 3 1 9 9 14 8 6 11 10 7 10 -5 0
-5 5 -2 10 3 6 16 10 28 10 21 -1 20 -2 -8 -25z m149 -48 c-2 -7 -24 -13 -49
-13 l-45 -2 0 44 0 44 49 -31 c28 -16 48 -35 45 -42z m-879 52 c4 -5 -6 -29
-21 -52 -21 -32 -29 -38 -32 -24 -4 21 -22 23 -22 2 0 -19 -5 -19 -41 2 -36
21 -36 26 -3 52 34 27 44 26 45 -1 1 -21 3 -18 14 17 4 14 52 17 60 4z m775
-30 c0 -22 -4 -38 -8 -35 -4 2 -14 1 -22 -5 -12 -7 -11 -9 5 -10 11 0 14 -3 7
-6 -6 -2 -10 -8 -8 -12 3 -4 -1 -8 -9 -8 -8 0 -11 5 -8 10 4 6 -2 8 -15 5 -12
-4 -26 0 -33 8 -9 10 -6 12 11 9 17 -3 20 0 15 14 -4 13 4 27 25 45 18 14 33
26 36 26 2 0 4 -18 4 -41z m-503 18 c13 5 13 2 4 -15 -7 -12 -14 -22 -17 -22
-3 0 -3 4 0 9 4 5 -4 7 -15 4 -21 -6 -21 -6 2 -17 28 -13 36 -48 14 -66 -12
-10 -15 -10 -15 2 0 8 5 19 12 26 7 7 8 12 2 12 -5 0 -15 -5 -21 -11 -14 -14
-30 14 -28 51 0 18 5 24 19 22 12 -2 16 1 11 10 -6 10 -5 10 5 1 7 -6 19 -9
27 -6z m113 7 c0 -8 -58 -32 -64 -27 -17 18 -4 32 29 31 19 -1 35 -3 35 -4z
m10 -48 c0 -33 -2 -34 -30 -31 -17 2 -38 8 -47 13 -14 8 -10 13 23 30 52 28
54 27 54 -12z m-199 -3 c0 -5 2 -17 4 -28 3 -17 -1 -20 -29 -20 -23 0 -33 4
-31 14 3 23 54 54 56 34z m-300 -33 c26 -14 24 -23 -12 -64 -18 -21 -28 -41
-23 -48 5 -9 4 -10 -4 -3 -6 6 -12 24 -15 40 l-4 30 -2 -32 c0 -18 -4 -33 -8
-33 -16 0 -83 72 -77 82 5 7 2 8 -7 4 -8 -4 -6 -1 4 7 14 11 15 16 5 21 -7 3
-3 3 9 1 12 -3 24 -1 28 5 3 6 10 8 15 5 5 -3 11 -1 15 4 6 10 34 3 76 -19z
m1037 7 c25 -17 10 -27 -39 -27 -42 0 -49 2 -40 14 9 11 7 12 -13 9 -13 -3
-26 -1 -29 4 -7 10 104 11 121 0z m-581 -13 c-3 -3 -12 -4 -19 -1 -8 3 -5 6 6
6 11 1 17 -2 13 -5z m170 -26 c-3 -8 -6 -5 -6 6 -1 11 2 17 5 13 3 -3 4 -12 1
-19z m276 -65 c-17 -49 -24 -52 -55 -21 -17 17 -20 18 -15 4 5 -12 3 -16 -5
-14 -20 7 -21 38 -3 58 9 10 12 21 7 24 -6 3 -13 -1 -16 -10 -6 -16 -26 -10
-26 8 0 6 3 8 7 5 3 -4 13 -2 20 5 19 15 35 -8 27 -37 -6 -18 -5 -18 13 2 11
13 24 19 28 15 5 -4 5 -1 1 6 -4 7 -5 21 -1 30 6 15 8 14 20 -7 10 -20 10 -32
-2 -68z m-773 33 l0 -40 -30 29 c-23 22 -30 25 -30 12 0 -9 5 -16 11 -14 6 1
14 -4 16 -10 7 -18 -15 -16 -34 2 -14 14 -17 14 -33 -2 -10 -10 -17 -21 -16
-25 0 -4 -8 -14 -19 -23 -19 -16 -19 -16 3 -5 13 6 43 17 68 25 l46 14 -7 -26
c-6 -24 -4 -25 10 -13 13 11 18 11 28 0 9 -10 9 -11 0 -6 -6 3 -17 0 -24 -7
-11 -11 -16 -11 -31 2 -25 21 -40 21 -61 -3 -17 -19 -17 -21 -1 -33 22 -16 13
-17 -21 -1 -16 7 -21 14 -14 19 8 4 4 9 -10 14 -27 8 -27 25 1 33 19 5 20 6 4
12 -16 5 -16 8 4 33 21 27 48 38 34 15 -5 -9 -2 -9 9 1 14 11 17 11 17 0 0 -8
5 -6 12 6 14 26 27 34 50 32 14 -1 18 -10 18 -41z m325 8 c-38 -34 -27 -33 23
2 l22 16 0 -51 c0 -55 -5 -59 -51 -36 -20 11 -32 26 -36 47 l-6 31 -18 -24
c-9 -13 -15 -28 -12 -33 3 -5 1 -6 -5 -2 -8 5 -8 13 0 31 12 26 41 41 58 30 6
-3 7 1 4 9 -5 13 1 16 27 16 l34 0 -40 -36z m131 16 c-1 -8 -7 -32 -15 -53
-10 -30 -16 -36 -26 -27 -8 6 -16 19 -18 28 -2 9 -2 2 0 -15 2 -21 0 -33 -8
-33 -8 0 -10 14 -5 48 4 26 7 52 8 57 2 17 65 12 64 -5z m93 -33 c-5 -20 -7
-43 -4 -50 4 -6 -5 1 -20 17 -28 31 -30 62 -2 60 9 -1 17 5 17 14 0 10 3 13
10 6 6 -6 6 -23 -1 -47z m73 34 c11 -11 18 -25 16 -31 -2 -6 -14 3 -26 19 -26
35 -21 40 10 12z m-942 4 c0 -18 -45 -93 -53 -88 -6 3 -7 1 -3 -5 6 -10 -4
-16 -25 -14 -3 1 -5 -9 -4 -21 2 -24 31 -33 55 -17 12 8 13 12 2 19 -8 4 -13
11 -13 15 2 14 52 106 58 106 3 0 25 -16 49 -35 48 -40 55 -79 19 -103 -19
-13 -19 -13 3 -9 24 6 30 -7 35 -73 1 -25 -2 -34 -11 -32 -8 1 -11 -2 -7 -8 4
-6 -6 -10 -25 -10 -29 0 -30 1 -19 23 7 12 20 34 30 49 11 14 19 30 19 34 0 5
-16 -15 -35 -44 -20 -28 -39 -53 -43 -53 -45 -8 -65 -3 -77 21 -8 14 -14 19
-15 10 0 -13 -1 -13 -10 0 -7 12 -11 10 -18 -10 l-9 -25 -15 30 c-8 17 -14 51
-13 78 1 26 -3 47 -7 47 -5 0 -6 5 -2 12 4 7 9 23 10 37 2 13 10 31 18 40 20
20 21 2 1 -26 -11 -16 -12 -24 -4 -29 7 -4 9 -3 6 2 -3 5 3 21 14 34 10 14 19
19 20 13 1 -7 2 -17 3 -22 0 -5 5 -13 9 -18 5 -4 7 3 6 17 -4 27 17 59 39 60
6 0 12 -2 12 -5z m348 -27 c-6 -15 -12 -28 -14 -28 -2 0 -4 13 -4 28 0 18 5
29 14 29 11 0 12 -6 4 -29z m134 25 c-22 -4 -23 -5 -5 -18 17 -13 17 -14 1
-16 -27 -2 -32 -4 -45 -12 -9 -6 -13 -1 -13 18 0 14 4 24 8 21 4 -2 14 -1 22
5 8 5 24 8 35 7 16 -1 16 -2 -3 -5z m473 -71 c-5 -4 -11 -13 -13 -21 -3 -12 0
-12 12 -1 12 9 16 9 16 1 0 -7 4 -10 9 -6 5 3 13 0 17 -6 4 -7 3 -10 -2 -6 -5
3 -20 -1 -34 -9 -14 -7 -19 -13 -12 -14 6 0 12 -7 12 -16 0 -10 -8 -15 -22
-14 -46 4 -53 1 -33 -13 10 -8 15 -19 12 -24 -4 -6 3 -9 17 -8 19 2 23 -1 18
-17 -4 -15 -7 -17 -14 -6 -7 9 -8 7 -4 -7 3 -11 2 -26 -2 -33 -10 -15 -52 55
-59 100 -4 26 -2 30 13 24 14 -5 15 -4 4 9 -7 8 -9 15 -4 15 5 0 2 5 -6 10
-12 8 -12 10 5 10 11 0 27 5 35 10 11 8 8 9 -11 4 -35 -8 -42 7 -29 57 l12 42
36 -37 c22 -21 33 -40 27 -44z m285 67 c0 -6 -9 -24 -21 -40 -11 -16 -17 -29
-12 -29 4 0 17 15 27 33 l19 32 14 -30 14 -30 -6 28 c-3 16 -2 26 3 23 14 -8
36 -95 27 -104 -4 -4 -10 -1 -12 6 -3 6 -9 10 -14 6 -5 -3 -9 3 -10 13 0 14
-2 14 -9 -4 -5 -13 -15 -23 -22 -23 -10 0 -10 -2 -1 -8 9 -6 7 -18 -7 -50 -20
-44 -35 -54 -37 -24 -1 9 -2 26 -4 37 -1 11 1 36 5 55 6 29 5 32 -5 16 -11
-18 -12 -18 -25 5 l-14 24 3 -24 c1 -19 -4 -26 -26 -32 -25 -7 -27 -5 -21 13
4 14 2 18 -5 14 -14 -9 -14 -7 3 42 8 22 12 43 9 46 -4 3 1 6 11 6 9 0 15 -4
12 -9 -4 -5 -1 -20 4 -33 l11 -23 -5 23 c-8 41 3 52 50 52 25 0 44 -5 44 -11z
m180 1 c0 -8 -13 -13 -40 -12 -3 0 -16 2 -30 6 -18 4 -16 2 8 -9 17 -8 32 -19
32 -24 0 -12 -49 -71 -59 -71 -4 0 -13 18 -20 41 -7 23 -15 47 -17 54 -6 15
18 22 84 24 23 0 42 -3 42 -9z m115 0 c4 -7 12 -7 25 0 17 9 18 7 10 -20 -5
-16 -12 -35 -16 -41 -4 -7 -3 -9 3 -6 6 4 16 20 23 37 15 36 22 37 37 5 6 -14
8 -23 3 -20 -4 3 -20 -5 -34 -16 -15 -12 -33 -18 -41 -15 -8 3 -15 1 -15 -5 0
-5 -10 -14 -22 -19 -13 -5 -17 -9 -10 -9 6 -1 12 -6 12 -11 0 -6 -7 -6 -19 2
-24 15 -21 32 12 73 38 48 33 52 -8 7 l-34 -37 -1 37 c0 20 6 39 13 41 21 9
56 7 62 -3z m-985 -40 c-15 -29 -28 -24 -26 9 1 25 3 28 18 20 15 -8 16 -14 8
-29z m898 -12 l-3 -23 -13 23 c-11 19 -11 26 0 39 12 15 13 15 16 0 2 -9 2
-27 0 -39z m-1052 7 c1 -8 -5 -15 -14 -16 -11 0 -8 -4 8 -11 14 -6 28 -10 33
-10 4 1 7 -2 7 -8 0 -5 9 -10 19 -10 11 0 23 -4 26 -10 4 -6 -5 -10 -19 -10
-14 0 -26 5 -26 10 0 6 -9 10 -21 10 -13 0 -18 4 -13 12 5 7 3 8 -5 4 -7 -5
-10 -14 -7 -22 7 -19 -13 -29 -27 -14 -9 10 -9 14 0 17 10 4 9 8 -2 19 -18 19
-9 44 17 44 12 0 17 4 12 13 -4 6 -3 8 1 4 5 -4 10 -14 11 -22z m394 -21 c0
-39 -3 -45 -16 -40 -14 5 -15 4 -4 -9 10 -12 10 -15 -1 -15 -10 -1 -9 -4 4
-14 9 -7 17 -17 17 -21 0 -5 -8 -1 -18 8 -10 9 -18 27 -17 39 1 25 24 98 31
98 2 0 4 -21 4 -46z m45 -24 c2 -10 -3 -24 -11 -31 -12 -10 -13 -9 -8 6 5 13
4 16 -4 11 -9 -5 -12 7 -12 41 l1 48 15 -28 c9 -16 17 -37 19 -47z m-328 37
c-1 -7 -6 -15 -12 -19 -6 -5 -3 -8 6 -8 9 0 16 -6 16 -14 0 -28 -72 1 -74 31
-1 14 6 18 33 20 21 1 33 -2 31 -10z m920 -17 c7 -11 9 -21 3 -25 -5 -3 -7
-14 -5 -25 2 -11 -5 -28 -15 -38 -19 -17 -19 -18 0 -18 10 0 16 5 14 11 -3 5
2 1 11 -10 11 -14 18 -16 23 -8 6 9 16 8 41 -4 26 -13 32 -21 28 -40 -3 -19
-2 -21 9 -12 8 6 14 7 14 2 0 -5 6 -10 14 -10 8 0 11 8 8 20 -4 15 4 29 28 49
31 25 36 26 56 14 20 -14 21 -13 20 6 0 12 5 23 13 26 9 3 11 0 6 -8 -6 -9 -4
-12 6 -8 11 4 14 -2 13 -21 -1 -16 -7 -26 -16 -25 -10 1 -13 -6 -10 -24 3 -16
1 -23 -6 -19 -5 4 -13 0 -16 -9 -3 -8 -10 -13 -15 -9 -5 3 -12 1 -16 -5 -3 -5
-13 -10 -21 -10 -8 0 -12 5 -9 10 4 6 11 8 16 5 5 -4 9 -1 9 4 0 6 6 11 14 11
7 0 19 7 26 15 10 12 9 16 -4 21 -9 3 -24 3 -33 0 -14 -6 -15 -9 -4 -16 11 -6
6 -12 -18 -25 -18 -9 -35 -14 -38 -11 -3 3 -20 -6 -38 -19 -17 -14 -35 -22
-40 -17 -5 4 -5 1 -1 -5 9 -16 -6 -17 -22 -1 -17 17 -15 31 4 24 8 -3 12 -2 9
4 -3 6 2 11 12 11 16 1 16 2 -1 6 -18 5 -18 6 5 20 21 12 22 13 2 8 -12 -3
-24 -1 -28 5 -3 6 -11 8 -16 5 -5 -4 -9 0 -10 7 0 7 -4 5 -8 -6 -7 -17 -9 -17
-34 5 -14 13 -27 31 -28 39 -3 33 2 50 16 50 8 0 15 5 15 11 0 5 -4 8 -9 4 -5
-3 -13 0 -17 6 -4 8 -9 7 -16 -2 -8 -11 -9 -11 -5 1 2 8 9 14 15 13 6 -2 14 6
17 17 8 25 17 25 32 0z m213 -7 c0 -9 -6 -13 -14 -10 -10 4 -13 1 -9 -9 3 -7
1 -14 -4 -14 -5 0 -10 -7 -10 -15 0 -8 4 -15 9 -15 14 0 0 -17 -31 -40 -26
-18 -29 -18 -26 -3 2 10 4 22 4 26 1 5 6 5 13 1 7 -5 8 -3 3 6 -4 7 -2 16 6
21 12 7 11 9 -1 9 -13 0 -13 1 0 10 12 8 12 10 -5 10 -18 1 -17 3 8 25 28 25
57 24 57 -2z m-1017 -17 c3 3 18 -1 34 -10 15 -8 22 -15 14 -16 -11 0 -10 -4
5 -15 13 -10 14 -13 3 -10 -9 3 -22 -1 -29 -10 -7 -8 -16 -15 -21 -15 -12 0
-7 40 6 40 5 0 2 5 -8 11 -10 6 -25 8 -34 5 -14 -6 -14 -8 -1 -24 9 -9 15 -30
14 -45 -1 -16 3 -31 8 -34 5 -3 6 -1 2 5 -10 16 17 15 33 0 11 -11 11 -9 2 10
-10 18 -9 23 4 28 8 3 13 9 10 14 -2 4 9 7 26 8 30 1 31 0 26 -36 l-5 -37 11
38 c11 39 23 43 41 14 8 -13 4 -23 -19 -47 -21 -22 -31 -27 -37 -18 -5 9 -8 7
-8 -6 0 -18 -1 -18 -20 -1 -19 17 -19 17 -11 -13 8 -26 7 -30 -7 -25 -10 3 -6
-3 8 -13 14 -10 29 -19 33 -19 5 0 15 -9 23 -19 8 -11 14 -15 14 -9 0 7 -4 15
-10 18 -13 8 -4 72 12 88 7 7 21 18 31 26 15 12 17 11 17 -9 0 -16 -4 -21 -16
-16 -15 6 -15 4 -3 -11 9 -11 10 -14 1 -9 -7 4 -19 1 -27 -8 -19 -19 -19 -26
1 -26 8 0 13 -4 10 -9 -3 -5 2 -8 11 -7 14 1 17 -9 17 -54 1 -53 0 -55 -28
-58 -16 -2 -43 -1 -61 2 -27 5 -35 14 -53 59 -24 57 -28 82 -12 72 6 -3 10 -2
10 3 0 9 -25 24 -42 26 -9 1 -68 93 -68 106 0 6 9 10 20 10 12 0 20 6 19 13
-1 6 1 20 5 29 6 13 12 15 26 8 9 -5 20 -7 23 -4z m422 -6 c3 -5 1 -10 -4 -10
-6 0 -11 5 -11 10 0 6 2 10 4 10 3 0 8 -4 11 -10z m405 -20 c0 -5 -5 -10 -11
-10 -5 0 -7 5 -4 10 3 6 8 10 11 10 2 0 4 -4 4 -10z m-379 -30 c10 0 19 -3 19
-7 0 -5 9 -19 20 -33 15 -18 18 -20 13 -6 -5 15 -3 17 8 11 8 -5 6 1 -4 13
-27 30 -13 46 24 27 16 -9 29 -20 29 -24 0 -5 3 -17 7 -26 5 -15 3 -16 -17 -5
l-23 13 21 -28 c12 -15 34 -34 48 -41 34 -18 43 -18 19 0 -18 13 -18 15 1 62
l19 49 3 -54 c2 -29 0 -61 -4 -70 -4 -9 -7 -19 -6 -22 1 -4 -14 -31 -33 -60
-19 -30 -35 -47 -35 -39 0 12 -3 11 -11 -3 -6 -9 -15 -14 -21 -11 -7 4 -8 2
-4 -4 4 -7 1 -12 -6 -12 -11 0 -11 -2 0 -9 10 -6 10 -10 -3 -21 -13 -11 -18
-11 -28 0 -9 10 -9 14 2 17 10 4 11 7 1 13 -19 12 41 115 67 114 15 0 18 5 15
28 -2 16 -9 25 -14 21 -6 -3 -19 5 -30 18 -14 18 -17 19 -11 5 7 -22 7 -22
-74 32 -53 34 -66 52 -38 52 8 0 16 8 16 18 1 16 2 16 6 0 2 -10 13 -18 24
-18z m-1211 10 c0 -5 -4 -10 -10 -10 -5 0 -10 5 -10 10 0 6 5 10 10 10 6 0 10
-4 10 -10z m624 -15 c-8 -24 -57 -105 -64 -105 -10 0 -30 64 -30 93 0 39 20
33 21 -5 1 -27 2 -28 6 -8 7 45 12 50 43 48 25 -2 29 -6 24 -23z m1055 1 c5
-6 6 -17 2 -24 -5 -9 -15 -4 -35 17 l-27 28 25 -4 c14 -3 30 -10 35 -17z
m-715 6 c3 -5 -1 -9 -9 -9 -8 0 -12 4 -9 9 3 4 7 8 9 8 2 0 6 -4 9 -8z m494
-8 c4 3 13 -4 20 -14 9 -15 7 -23 -11 -42 -42 -46 -51 -63 -16 -30 19 18 39
29 44 25 4 -5 5 -2 1 5 -4 7 -1 12 8 12 18 0 76 -49 58 -50 -7 0 -11 -4 -8 -9
3 -5 -8 -8 -26 -7 -20 1 -34 8 -40 21 -8 18 -8 18 -4 -2 3 -17 -2 -23 -25 -28
-16 -4 -33 -4 -39 0 -5 3 -10 35 -10 71 0 62 1 64 20 54 11 -6 24 -9 28 -6z
m-1106 -10 l30 -16 -28 -31 c-19 -21 -21 -25 -6 -12 20 16 25 17 34 5 8 -12 9
-12 4 3 -10 32 21 18 38 -18 21 -43 13 -62 -17 -42 -27 17 -83 29 -68 14 7 -7
7 -16 0 -29 -7 -12 -6 -18 2 -18 6 0 9 -7 5 -15 -8 -21 11 -19 40 4 19 15 21
20 9 25 -8 3 -15 11 -14 18 0 10 2 10 6 1 2 -7 11 -13 18 -13 21 0 28 -19 14
-38 -8 -9 -1 -6 14 7 l27 24 0 -55 c0 -54 -1 -56 -32 -62 -17 -3 -33 -4 -36
-1 -3 3 1 5 9 5 11 0 11 2 -1 10 -12 8 -13 13 -3 29 10 16 9 22 -5 33 -15 12
-16 11 -4 -4 11 -14 10 -18 -7 -27 -17 -9 -24 -5 -51 29 -17 22 -27 40 -21 40
6 0 1 10 -10 21 -18 18 -20 29 -15 65 4 31 2 44 -7 44 -16 0 14 20 31 20 7 0
27 -7 44 -16z m81 7 c5 -1 5 -11 1 -23 -6 -20 -5 -21 10 -9 9 7 16 9 16 4 0
-5 10 -9 23 -10 12 0 16 1 10 4 -7 3 -13 12 -13 20 0 13 3 13 15 3 8 -7 15 -9
15 -4 1 10 30 -67 30 -79 0 -5 -5 -5 -10 -2 -13 8 -8 -18 5 -27 14 -11 -17
-10 -33 1 -7 4 -12 12 -11 17 1 5 1 18 0 29 -2 18 -3 18 -15 -4 l-13 -24 -18
27 c-10 15 -19 38 -20 49 -1 14 -8 21 -19 19 -9 -2 -16 1 -16 7 0 5 8 8 18 6
9 -2 21 -4 25 -4z m-513 -11 c-8 -5 -24 -9 -35 -9 -16 1 -16 2 5 9 35 11 48
11 30 0z m770 -37 c17 -26 30 -55 30 -65 0 -24 -48 -47 -92 -45 -30 2 -34 5
-27 19 7 13 5 15 -11 11 -29 -8 -25 12 12 71 l33 50 6 -29 7 -30 1 33 c0 17 3
32 6 32 3 0 19 -21 35 -47z m1219 30 c6 -12 6 -24 -1 -38 -10 -17 -9 -18 4 -8
16 14 28 8 28 -14 0 -15 -26 -13 -55 5 -14 8 -16 12 -5 12 12 1 12 2 -2 10
-10 6 -14 18 -11 30 7 25 29 26 42 3z m-886 -50 c14 -32 25 -59 23 -60 -1 -2
-24 4 -50 13 -26 9 -45 19 -42 22 3 3 2 10 -4 17 -11 13 -2 55 12 55 5 0 4 -9
-2 -21 -7 -11 -10 -23 -7 -25 2 -3 10 9 17 26 7 16 16 30 20 30 4 0 19 -26 33
-57z m197 2 c39 -25 70 -50 70 -55 0 -10 -40 -91 -58 -118 -10 -15 -128 -29
-118 -14 3 5 18 8 33 6 24 -3 23 -2 -5 7 -24 7 -32 14 -28 25 4 9 2 12 -5 8
-6 -4 -15 0 -20 7 -7 11 -10 9 -15 -7 -10 -37 -114 -66 -114 -32 0 5 -5 6 -10
3 -6 -4 -9 13 -7 45 1 32 8 55 17 60 13 8 13 10 1 10 -8 0 -12 2 -9 5 4 4 84
-22 97 -32 2 -1 -13 -23 -34 -48 -20 -25 -35 -48 -33 -50 2 -3 22 19 43 48 31
41 40 48 43 33 3 -12 7 -15 11 -8 5 8 20 1 46 -19 l40 -31 -40 39 c-42 41 -47
63 -26 115 6 15 8 34 5 42 -10 26 42 9 116 -39z m-1211 8 c26 -52 26 -53 -6
-74 -30 -20 -24 -26 9 -8 20 11 20 11 2 -19 -9 -17 -26 -33 -36 -35 -10 -3
-16 -1 -13 3 3 5 -1 11 -7 13 -10 4 -9 8 2 16 12 9 10 11 -11 11 -30 0 -49 29
-21 31 16 1 16 2 -1 6 -15 4 -12 11 19 49 20 24 38 44 40 44 2 0 12 -17 23
-37z m1881 -35 c30 -10 32 -12 14 -19 -16 -6 -16 -8 -2 -8 9 -1 19 -5 23 -11
3 -5 -7 -5 -25 1 -17 6 -37 9 -45 5 -8 -3 -17 -1 -20 4 -3 5 -13 6 -23 3 -15
-6 -15 -5 -3 10 13 16 14 16 27 0 12 -16 13 -16 7 5 -6 25 1 27 47 10z m-300
-28 c0 -3 -5 -11 -12 -18 -7 -7 -8 -12 -3 -12 5 0 -6 -16 -25 -35 -19 -19 -40
-35 -47 -35 -8 0 -16 -6 -19 -13 -3 -8 -10 -14 -17 -15 -7 0 -21 -2 -32 -4
-18 -3 -20 3 -23 57 -2 47 0 57 9 48 9 -9 17 -9 32 -1 18 9 19 8 13 -18 -4
-16 -17 -39 -28 -51 -12 -13 -19 -25 -16 -28 3 -3 13 6 23 21 12 19 19 23 25
14 10 -15 30 -4 30 16 0 10 5 12 13 8 8 -5 8 -2 -2 9 -12 15 -10 17 20 18 l34
1 -33 8 c-37 9 -49 17 -38 27 4 4 11 1 16 -7 8 -13 11 -13 22 -1 10 10 10 12
1 7 -7 -4 -13 -3 -13 1 0 5 16 9 35 9 19 0 35 -3 35 -6z m-1710 -4 c0 -11 -19
-15 -25 -6 -3 5 1 10 9 10 9 0 16 -2 16 -4z m288 -19 c4 -21 -36 -19 -48 3 -7
12 -3 15 18 14 16 0 28 -7 30 -17z m68 8 c-15 -11 -23 -12 -33 -3 -11 8 -12 7
-7 -6 3 -9 1 -16 -5 -16 -12 0 -15 23 -4 33 3 4 20 7 37 7 29 -1 30 -1 12 -15z
m1511 0 c0 -8 -2 -13 -5 -10 -3 2 -13 0 -23 -6 -13 -6 -19 -6 -19 1 0 5 7 10
15 10 8 0 15 5 15 10 0 6 4 10 8 10 5 0 9 -7 9 -15z m-1837 -20 c0 -17 -17
-28 -30 -20 -7 4 -7 13 0 26 12 21 30 17 30 -6z m386 16 c-3 -5 7 -24 23 -42
35 -40 45 -88 24 -109 -14 -13 -14 -12 -3 10 8 17 3 14 -20 -12 -25 -30 -35
-36 -49 -29 -9 5 -23 6 -30 2 -10 -6 -9 -10 3 -14 9 -4 15 -12 14 -19 -2 -7 3
-12 10 -10 6 1 12 -6 13 -15 0 -10 7 -2 15 17 8 19 12 25 10 12 -4 -20 -2 -21
12 -10 14 11 15 10 8 -7 -4 -11 -4 -16 0 -12 9 9 35 -73 28 -85 -3 -4 -14 -8
-25 -8 -11 0 -17 4 -14 10 3 5 -1 22 -10 37 -8 16 -14 21 -13 13 4 -32 -12
-57 -37 -57 -19 0 -25 5 -25 23 0 12 -4 25 -9 28 -4 3 -6 -7 -4 -22 4 -23 3
-25 -7 -9 -6 10 -10 28 -8 40 3 21 4 21 36 -10 41 -41 56 -44 18 -4 -20 21
-26 35 -22 55 4 23 3 26 -9 16 -12 -10 -16 -9 -21 4 -10 26 -23 9 -18 -24 3
-17 1 -30 -5 -30 -6 0 -11 3 -12 8 0 4 -2 18 -3 31 -2 18 4 26 27 36 24 10 26
13 12 19 -14 5 -15 9 -5 21 11 13 10 14 -4 9 -13 -5 -16 0 -16 27 0 26 -3 30
-10 19 -8 -12 -10 -11 -10 8 0 35 17 26 56 -28 44 -61 56 -67 16 -7 -47 69
-48 71 -26 64 18 -7 18 -6 1 7 -16 13 -15 15 15 29 18 8 42 17 53 20 11 3 21
5 23 6 2 0 1 -3 -2 -8z m257 -21 c4 -4 -11 -24 -35 -46 l-43 -39 -3 44 c-5 64
1 72 40 59 18 -6 37 -14 41 -18z m1137 21 c0 -5 -9 -11 -20 -14 -20 -5 -26 3
-13 16 9 10 33 8 33 -2z m-1630 -9 c0 -5 -9 -17 -20 -27 -22 -20 -26 -14 -10
16 11 19 30 26 30 11z m709 -41 c11 -27 21 -52 21 -55 0 -4 -27 7 -61 24 -63
32 -69 47 -28 67 38 20 45 16 68 -36z m627 -57 c-5 -14 -66 -20 -66 -7 0 3 15
29 33 57 l32 51 3 -44 c2 -24 1 -50 -2 -57z m253 55 c-14 -10 -34 -16 -48 -14
-13 2 -21 1 -17 -2 3 -3 1 -12 -5 -20 -6 -7 -8 -13 -3 -13 4 0 -5 -13 -21 -30
-35 -37 -45 -38 -45 -4 0 14 4 23 9 20 5 -4 8 2 6 11 -3 19 53 85 66 77 4 -2
10 0 14 5 3 6 17 6 37 -1 l31 -11 -24 -18z m262 3 c-11 -21 -26 -44 -34 -51
-13 -10 -17 -5 -30 33 -8 24 -13 47 -9 50 3 3 25 6 49 6 l43 0 -19 -38z
m-1822 -1 c1 21 6 25 31 25 16 0 31 -5 34 -12 8 -20 -13 -28 -31 -12 -15 12
-15 11 -5 -9 7 -12 12 -26 12 -31 0 -17 -51 -24 -67 -10 -9 7 -18 12 -20 11
-1 -2 -7 -3 -13 -3 -20 0 -10 29 18 50 l27 22 6 -29 c7 -28 7 -28 8 -2z m527
20 c-4 -5 0 -11 6 -14 16 -5 -28 -44 -60 -53 -31 -9 -37 0 -19 26 11 15 16 18
20 8 4 -10 6 -9 6 2 1 8 11 20 24 26 30 15 29 15 23 5z m1191 -28 l25 -28 -17
28 c-9 16 -14 31 -11 35 11 10 28 -16 30 -45 1 -15 5 -33 9 -40 4 -6 4 -19 1
-28 -4 -10 -2 -15 6 -13 7 2 18 -12 24 -30 6 -18 15 -30 20 -25 4 4 4 -5 0
-21 -5 -21 -4 -27 5 -22 6 4 11 2 11 -3 0 -14 -6 -14 -33 1 -20 10 -21 10 -9
-5 12 -14 9 -16 -20 -20 l-33 -4 37 -1 c31 -2 36 -5 30 -19 -17 -42 -58 -103
-69 -103 -11 0 -103 101 -103 114 0 3 10 7 23 7 l22 2 -22 4 c-30 6 -29 16 6
55 l29 32 43 -28 44 -27 -35 30 -35 31 24 18 c20 16 21 19 4 17 -10 0 -24 -4
-31 -9 -8 -5 -12 0 -13 16 -1 21 -2 21 -7 3 -9 -25 -40 -28 -47 -4 -3 10 3 36
15 58 28 56 25 64 -6 13 -22 -36 -29 -42 -52 -38 -15 2 -30 5 -34 5 -14 2 -8
24 10 37 26 20 41 17 36 -8 -4 -23 1 -13 17 30 8 20 14 23 45 19 24 -3 46 -15
61 -34z m165 5 c8 -18 13 -27 11 -20 -2 8 3 12 9 10 7 -3 14 -18 16 -34 2 -22
0 -26 -7 -14 -10 14 -12 12 -10 -7 0 -4 -8 -10 -18 -14 -16 -7 -16 -8 -1 -8
11 -1 15 -6 12 -16 -5 -11 -2 -13 10 -9 11 4 22 -1 31 -12 13 -18 13 -18 12 1
-1 11 -6 23 -12 27 -6 5 -5 8 3 8 7 0 15 -7 18 -15 4 -8 10 -12 15 -9 5 3 9
-11 9 -31 0 -21 4 -34 10 -30 6 4 7 -1 3 -11 -5 -14 -8 -12 -20 10 -20 38 -25
32 -7 -9 15 -36 9 -45 -15 -22 -11 10 -13 9 -7 -3 4 -8 1 -6 -8 4 -8 10 -13
22 -11 27 3 4 1 10 -4 14 -6 3 -8 -6 -5 -21 4 -21 1 -25 -10 -21 -9 4 -18 2
-21 -4 -4 -5 1 -12 9 -15 13 -5 13 -10 4 -27 -15 -31 -16 -31 -31 -16 -22 23
-23 25 -8 42 11 14 11 17 0 18 -10 0 -11 2 -1 6 6 2 10 9 7 14 -3 4 2 21 11
36 15 26 15 27 -1 8 -9 -11 -20 -26 -24 -33 -4 -7 -15 -10 -24 -6 -9 3 -14 10
-11 15 2 5 0 18 -6 30 -24 44 -21 70 11 120 17 27 35 49 39 49 4 0 14 -15 22
-32z m-2027 -19 c0 -15 -6 -24 -15 -24 -8 0 -14 7 -12 17 1 9 -3 20 -9 24 -8
4 -9 3 -5 -4 4 -6 2 -21 -4 -33 -12 -21 -17 -22 -20 -4 -1 6 -6 16 -12 22 -8
9 -4 15 12 21 40 15 65 8 65 -19z m1543 6 c-3 -3 -9 2 -12 12 -6 14 -5 15 5 6
7 -7 10 -15 7 -18z m-958 -10 c-10 -12 -10 -18 -1 -29 10 -12 7 -15 -19 -14
l-31 1 27 29 c29 29 45 39 24 13z m211 -20 c27 -14 48 -29 48 -33 -4 -26 1
-34 16 -22 26 22 18 -22 -11 -55 -14 -16 -23 -23 -21 -15 3 8 8 24 11 35 4 11
-3 1 -16 -22 -12 -24 -25 -43 -29 -43 -13 0 -30 57 -25 84 4 22 2 25 -8 17
-15 -13 -26 -5 -26 20 0 10 -4 20 -9 23 -4 3 -6 -6 -3 -19 3 -20 1 -24 -12
-19 -9 3 -16 1 -16 -4 0 -6 9 -9 20 -7 11 2 18 0 15 -5 -12 -20 -105 15 -105
39 0 5 14 21 31 35 36 31 65 29 140 -9z m-873 -12 c1 -15 -4 -30 -10 -35 -8
-4 -1 -6 17 -5 21 1 30 -3 33 -16 3 -13 -2 -16 -20 -15 -13 2 -22 -2 -21 -8 1
-6 -4 -11 -12 -11 -10 0 -11 5 -4 19 8 15 5 20 -13 28 -13 5 -17 9 -10 9 6 1
12 10 12 22 0 14 -5 19 -14 16 -10 -4 -13 -1 -9 9 3 7 15 14 27 14 16 0 22 -7
24 -27z m175 2 c9 2 18 -1 18 -6 2 -13 5 -22 14 -43 8 -19 9 -19 16 0 7 17 8
17 8 2 1 -10 5 -18 10 -18 5 0 11 -7 15 -15 4 -10 -1 -15 -15 -15 -11 0 -17 5
-14 10 5 8 -56 16 -87 11 -20 -3 -5 16 20 26 l27 11 -33 -4 c-28 -2 -33 0 -27
14 4 9 8 23 8 29 0 8 5 9 11 4 6 -5 19 -7 29 -6z m-98 -17 c-6 -27 -15 -39
-26 -33 -16 10 -6 51 12 51 11 0 16 -7 14 -18z m205 11 c0 -5 4 -7 10 -4 5 3
7 0 4 -8 -4 -12 -19 -14 -59 -8 -11 2 24 31 37 31 4 0 8 -5 8 -11z m920 1 c0
-5 -12 -10 -27 -9 -25 0 -26 1 -8 9 27 12 35 12 35 0z m968 -15 c-3 -3 -9 2
-12 12 -6 14 -5 15 5 6 7 -7 10 -15 7 -18z m-2062 -10 c1 -8 -4 -11 -11 -8 -8
2 -11 11 -8 19 6 16 16 11 19 -11z m1526 -5 c5 -34 -7 -41 -17 -10 -5 17 0 40
9 40 2 0 6 -13 8 -30z m154 18 c6 -1 8 -13 6 -27 -7 -34 -52 -102 -63 -95 -5
3 -9 0 -9 -7 0 -7 -16 2 -35 21 -19 19 -35 39 -35 46 0 7 17 27 38 44 28 23
43 30 62 25 14 -3 30 -6 36 -7z m-1220 -38 c-2 -16 1 -27 5 -24 5 3 9 -2 9
-10 0 -8 -5 -18 -10 -21 -12 -8 -65 23 -56 32 3 3 -2 12 -12 20 -9 8 -11 12
-4 8 6 -3 14 0 17 7 3 8 17 15 30 16 22 2 24 -2 21 -28z m163 0 c33 -17 22
-20 -34 -7 -58 12 -59 13 -51 26 7 10 48 2 85 -19z m304 23 c4 -3 3 -11 -4
-19 -9 -11 -8 -14 5 -14 10 0 15 -4 12 -8 -3 -4 14 -8 37 -9 34 0 37 1 20 8
-26 9 -31 29 -9 29 17 0 26 -12 32 -44 3 -19 0 -23 -19 -21 -16 2 -17 1 -3 -2
19 -5 19 -6 -5 -25 -20 -17 -18 -17 14 2 32 19 43 21 63 11 14 -6 29 -9 34 -6
4 3 10 -4 13 -15 5 -19 0 -20 -68 -20 -75 0 -100 12 -100 49 0 9 -6 15 -14 13
-14 -3 -51 25 -51 40 0 5 10 13 23 17 19 8 18 9 -11 9 -18 -1 -35 2 -38 5 -7
7 57 7 69 0z m167 -1 c0 -5 -6 -17 -14 -27 -13 -18 -14 -18 -45 4 -17 12 -31
24 -31 27 0 2 20 4 45 4 25 0 45 -4 45 -8z m126 -7 c-4 -12 -2 -13 13 -5 14 7
22 6 31 -5 7 -8 11 -16 9 -16 -31 -9 -66 -4 -102 16 l-42 25 49 0 c39 0 47 -3
42 -15z m205 -30 l6 -40 2 39 c1 32 3 36 15 27 10 -8 16 -9 21 -1 8 13 25 13
25 -1 0 -5 -6 -7 -12 -4 -7 4 -6 1 3 -7 17 -14 22 -78 7 -78 -5 0 -6 5 -2 12
4 7 -8 1 -27 -12 -19 -14 -35 -24 -36 -23 -2 1 -9 0 -17 -3 -8 -3 -25 -4 -38
-2 -21 3 -23 8 -24 60 -1 32 2 55 7 52 5 -3 6 2 3 11 -6 14 -1 16 27 13 31 -3
34 -6 40 -43z m-1248 17 c8 -13 1 -32 -12 -32 -4 0 -13 11 -19 24 -9 20 -8 23
6 22 9 0 21 -7 25 -14z m1157 -8 c0 -14 -4 -23 -10 -19 -6 3 -10 -4 -10 -18 0
-33 -9 -38 -36 -20 -28 18 -22 35 22 64 36 24 34 24 34 -7z m-209 -14 c6 0 8
4 4 9 -3 5 -1 12 5 16 11 7 90 -34 90 -46 0 -7 -70 -43 -74 -37 -1 1 -7 14
-14 28 -11 24 -11 24 -5 -5 6 -26 4 -28 -9 -17 -10 8 -16 28 -15 50 0 20 2 29
4 20 3 -10 9 -18 14 -18z m-528 -1 c27 -6 51 -18 54 -25 3 -8 9 -12 14 -9 4 3
13 -3 19 -14 8 -17 8 -19 -4 -15 -15 6 -39 -27 -41 -58 -2 -20 -52 -98 -64
-98 -15 0 -44 40 -46 63 -1 12 -7 22 -14 22 -6 0 -16 7 -21 15 -8 12 -10 11
-10 -7 0 -20 -5 -23 -35 -23 -41 0 -44 9 -10 47 21 24 26 26 35 13 8 -13 11
-11 16 7 4 13 11 20 17 16 6 -3 7 -1 3 6 -4 6 -12 9 -17 6 -9 -6 -14 10 -9 30
1 6 3 15 3 22 0 7 4 10 8 7 4 -2 11 0 14 6 4 6 14 9 23 6 10 -3 39 -10 65 -17z
m1120 5 c5 13 13 16 29 10 33 -10 33 -10 2 -55 -28 -40 -29 -41 -35 -18 -5 17
-7 19 -8 6 -1 -10 -5 -15 -11 -12 -6 3 -7 -1 -4 -9 4 -11 0 -16 -12 -17 -18
-1 -18 -2 -1 -6 17 -4 17 -6 1 -31 -9 -15 -26 -37 -37 -49 -17 -19 -21 -20
-34 -8 -24 25 -4 71 29 66 4 0 5 6 2 14 -4 9 9 40 27 70 25 42 35 51 40 38 5
-15 6 -15 12 1z m-1794 -13 c16 -11 6 -51 -14 -51 -23 0 -29 22 -11 36 13 9
14 13 4 17 -7 3 -8 6 -3 6 6 0 16 -3 24 -8z m154 -20 c-2 -6 0 -11 5 -12 4 0
17 -2 29 -3 12 -1 20 1 17 6 -3 4 2 8 10 8 10 0 13 -6 10 -15 -4 -8 -10 -15
-15 -15 -5 0 -9 -5 -9 -12 0 -6 7 -4 18 5 23 21 32 21 32 1 0 -9 -5 -12 -12
-8 -9 5 -9 2 1 -9 11 -14 11 -17 -1 -17 -7 0 -24 7 -36 16 -12 8 -22 12 -22 8
0 -5 -17 8 -37 27 -33 29 -34 30 -10 3 29 -33 34 -53 15 -72 -18 -18 -38 -15
-31 6 5 15 4 15 -9 -2 -12 -16 -18 -17 -37 -6 -12 6 -30 9 -39 5 -9 -3 -13 -3
-9 1 4 4 3 12 -3 19 -6 8 0 23 21 48 37 45 58 48 53 10 -3 -25 -3 -24 6 4 9
28 13 31 33 24 12 -5 21 -14 20 -20z m820 9 c24 -28 22 -33 -26 -59 -50 -27
-82 -25 -83 6 -1 13 2 20 7 17 4 -2 18 9 30 26 26 35 48 38 72 10z m-933 1 c0
-5 -6 -14 -14 -20 -12 -10 -13 -8 -9 8 5 21 23 30 23 12z m766 -18 c6 -10 10
-42 9 -72 -2 -52 -2 -53 13 -26 16 31 27 23 36 -28 4 -23 -1 -30 -26 -43 -24
-12 -28 -18 -17 -25 11 -7 11 -9 -3 -9 -18 0 -22 10 -19 40 2 9 -4 6 -14 -8
-9 -12 -21 -19 -27 -16 -7 4 -8 2 -4 -4 5 -8 -5 -12 -34 -12 -38 0 -41 2 -34
23 3 12 18 42 32 66 22 38 27 41 33 25 6 -15 8 -16 8 -3 1 9 11 24 24 33 14
10 16 14 4 10 -14 -5 -16 -2 -13 17 3 13 5 30 5 37 1 17 14 15 27 -5z m-292
-9 c12 -11 13 -20 6 -32 -13 -23 -49 -68 -50 -62 0 3 -7 26 -15 53 -8 26 -10
47 -5 47 5 0 11 -12 13 -27 4 -26 4 -26 6 5 1 35 19 42 45 16z m807 -21 l1
-28 7 28 6 29 28 -22 c31 -25 33 -36 10 -62 -22 -24 -33 -23 -34 5 l-2 22 -4
-22 c-3 -16 -9 -20 -21 -16 -26 10 -72 43 -72 53 0 11 49 39 68 40 6 0 13 -12
13 -27z m89 5 c0 -16 -3 -19 -11 -11 -6 6 -8 16 -5 22 11 17 16 13 16 -11z
m246 1 l19 -22 -32 17 c-35 18 -41 26 -20 26 8 0 22 -10 33 -21z m-1691 0 c10
-15 -1 -23 -20 -15 -9 3 -13 10 -10 16 8 13 22 13 30 -1z m1046 -33 c-6 -7 -6
-17 -1 -26 6 -8 10 -10 10 -5 0 6 5 3 10 -5 7 -11 10 -11 10 -2 0 8 5 10 12 6
8 -5 9 -2 5 9 -6 15 3 17 68 17 41 0 75 -4 75 -8 0 -7 -55 -99 -67 -112 -2 -3
-18 11 -34 30 l-30 35 21 -35 c26 -46 25 -50 -9 -50 -25 0 -28 3 -24 23 4 18
3 19 -6 7 -8 -12 -11 -6 -12 25 l-2 40 -6 -41 c-6 -38 -8 -41 -29 -33 -22 8
-22 10 -7 46 13 33 13 36 0 19 -8 -11 -15 -23 -15 -28 0 -19 -30 -6 -49 21
-22 31 -28 57 -11 46 6 -3 10 -1 10 5 0 5 14 19 32 30 24 14 35 16 45 8 9 -7
10 -15 4 -22z m572 21 c4 3 14 0 24 -8 11 -9 14 -10 9 -1 -9 15 5 15 39 0 27
-12 32 -23 15 -33 -6 -4 -8 -10 -5 -15 3 -5 1 -11 -5 -15 -5 -3 -14 5 -20 19
-5 14 -12 26 -14 26 -3 0 -3 -6 0 -14 10 -25 -14 -27 -58 -5 -37 19 -40 23
-25 34 9 6 13 16 9 21 -4 4 0 3 9 -4 9 -6 19 -9 22 -5z m-1351 -35 c15 -6 13
-11 -11 -41 l-28 -34 -1 33 c-1 50 5 56 40 42z m1254 -8 c-4 -10 -2 -13 6 -8
8 5 9 0 5 -17 -4 -13 -7 -34 -7 -46 0 -35 -15 -27 -35 17 -10 22 -20 38 -22
36 -2 -2 6 -25 19 -51 22 -46 23 -47 4 -61 -19 -14 -12 -19 20 -15 6 1 10 -11
9 -26 -1 -16 3 -31 8 -34 5 -4 7 -17 5 -30 l-3 -23 -34 30 c-39 35 -38 70 1
59 20 -5 20 -4 -3 9 -20 11 -26 22 -23 41 2 22 0 24 -12 14 -12 -9 -13 -7 -10
17 2 16 1 21 -1 11 -3 -10 -13 -23 -23 -29 -14 -9 -16 -16 -8 -25 8 -10 6 -13
-8 -14 -11 0 -14 -3 -6 -6 6 -2 12 -9 12 -14 0 -6 -4 -7 -10 -4 -5 3 -10 2
-10 -4 0 -6 -13 -6 -36 1 -20 5 -38 7 -41 4 -3 -2 11 -8 30 -11 45 -9 53 -29
26 -66 -21 -30 -34 -36 -44 -19 -4 6 -10 8 -15 5 -4 -3 -16 -2 -26 2 -16 6
-14 9 11 20 l30 13 -30 -3 c-25 -2 -30 2 -31 23 -2 28 13 53 27 44 5 -3 9 0 9
5 0 6 -5 11 -12 11 -7 0 6 18 27 40 44 45 59 49 75 20 6 -11 16 -20 22 -20 6
0 4 10 -6 25 -22 33 -20 47 9 68 25 18 25 18 26 -10 l0 -28 11 25 c6 14 10 28
10 33 -1 4 12 7 29 7 24 0 30 -4 25 -16z m552 -12 c14 -63 8 -92 -20 -92 -10
0 -17 -4 -14 -9 7 -11 -50 -20 -65 -10 -16 10 50 121 68 115 7 -3 15 0 19 6 5
7 2 8 -6 3 -9 -6 -11 -4 -6 4 9 14 18 8 24 -17z m112 20 c0 -8 -43 -32 -57
-32 -3 0 0 7 7 15 7 8 16 12 21 9 5 -3 9 0 9 5 0 6 5 11 10 11 6 0 10 -4 10
-8z m-857 -29 c15 -7 27 -20 27 -27 0 -24 -78 -86 -102 -82 -13 2 -33 0 -45
-5 -19 -7 -23 -5 -23 12 0 13 4 18 13 13 9 -5 9 -4 0 6 -9 10 -6 22 15 54 40
62 47 64 115 29z m287 -94 c0 -11 -77 -13 -83 -1 -3 4 0 33 5 65 l10 58 34
-56 c19 -31 34 -60 34 -66z m265 64 c46 -57 47 -58 24 -64 -24 -7 -24 -7 -1
-8 12 -1 22 -4 22 -8 0 -5 -23 -34 -52 -66 -43 -49 -55 -57 -75 -52 -18 4 -23
2 -17 -6 4 -7 2 -10 -7 -7 -8 3 -14 15 -13 26 0 17 -2 19 -13 11 -10 -9 -13
-8 -13 2 0 8 -6 5 -15 -7 -11 -14 -14 -15 -9 -3 3 10 1 20 -5 24 -6 3 -11 2
-11 -4 0 -6 -6 -8 -14 -5 -9 3 -13 -1 -13 -13 3 -34 -40 -27 -80 12 -37 35
-38 36 -18 51 19 15 19 15 -6 9 -19 -5 -26 -2 -26 9 0 11 10 16 34 16 23 0 32
-4 27 -12 -5 -8 0 -9 14 -6 20 6 22 2 23 -35 1 -39 2 -40 8 -12 6 29 7 29 20
10 l13 -20 -7 20 c-16 49 -15 55 13 55 20 0 23 3 13 9 -8 5 -20 7 -28 4 -14
-6 -9 21 10 44 13 18 30 5 24 -18 -3 -10 -1 -22 4 -25 5 -3 9 -14 9 -25 0 -29
12 -24 48 23 10 12 10 18 1 24 -8 4 -9 3 -5 -4 5 -8 2 -10 -9 -6 -10 4 -12 11
-7 18 46 60 77 96 82 96 4 0 29 -26 55 -57z m-1785 37 c0 -5 3 -9 8 -9 21 4
32 -3 32 -20 0 -33 -20 -35 -51 -5 -21 20 -26 30 -17 36 18 11 28 10 28 -2z
m117 -19 c2 -13 -3 -18 -14 -17 -22 3 -29 26 -12 37 16 9 22 5 26 -20z m1404
14 c16 -9 35 -13 41 -9 6 4 8 3 4 -4 -3 -5 -2 -12 3 -14 5 -2 3 -18 -5 -36 -7
-18 -18 -31 -23 -28 -17 11 -71 106 -60 106 5 0 23 -7 40 -15z m-1535 -37 c21
-19 23 -58 2 -58 -5 0 -6 5 -3 10 3 6 -1 10 -10 10 -9 0 -13 -4 -10 -10 3 -5
1 -10 -5 -10 -7 0 -10 7 -7 15 4 8 2 17 -3 20 -6 4 -10 17 -10 31 0 27 9 26
46 -8z m879 5 c17 -20 20 -31 13 -40 -7 -9 -7 -13 0 -13 11 0 10 -75 -1 -86
-3 -3 -20 8 -39 25 -28 26 -31 32 -18 41 10 6 11 10 3 10 -26 0 -12 19 20 26
17 4 26 9 18 12 -14 5 -51 39 -51 47 0 15 34 1 55 -22z m-545 -15 c0 -17 -23
-3 -26 16 -2 14 0 15 12 5 8 -6 14 -16 14 -21z m-239 7 c1 -5 4 -14 9 -20 4
-5 5 -18 1 -28 -6 -16 -8 -16 -29 -2 -21 15 -33 43 -13 31 5 -4 7 3 4 15 -5
16 -2 20 11 18 9 -2 17 -8 17 -14z m309 2 c0 -5 -6 -7 -14 -4 -8 3 -17 0 -20
-8 -3 -9 0 -12 10 -8 16 6 18 -5 5 -26 -13 -20 -36 -7 -39 22 -1 17 4 27 16
29 29 7 42 5 42 -5z m99 3 c-10 -7 -49 -2 -49 5 0 2 14 3 31 3 17 -1 25 -4 18
-8z m-204 -41 c-11 -4 -14 -8 -6 -8 7 -1 11 -7 8 -16 -4 -8 -1 -17 5 -21 6 -4
8 -3 5 3 -9 15 24 26 37 13 8 -8 4 -16 -14 -30 -15 -11 -27 -15 -31 -8 -4 5
-9 2 -14 -9 -6 -15 -10 -12 -26 22 -13 29 -15 42 -6 47 7 4 8 8 3 8 -5 0 -3 7
4 15 10 11 17 12 33 3 21 -11 21 -11 2 -19z m139 20 c-4 -8 -1 -8 13 -1 24 13
50 0 31 -15 -21 -17 -42 -21 -59 -12 -13 7 -16 3 -14 -16 2 -13 8 -32 14 -42
10 -17 10 -17 11 0 0 9 4 17 8 17 14 0 32 -23 32 -42 0 -10 3 -17 8 -16 13 4
52 -13 52 -23 0 -12 -17 -12 -22 1 -7 23 -47 19 -63 -6 -13 -20 -19 -23 -30
-14 -10 8 -14 8 -17 -2 -4 -10 -10 -10 -32 0 -28 12 -30 38 -7 79 10 19 12 16
33 -47 3 -8 4 15 2 51 -3 69 1 82 26 92 22 8 22 8 14 -4z m130 -12 c14 -22 0
-33 -21 -16 -15 12 -16 12 -10 -4 4 -10 7 -25 7 -33 0 -8 6 -11 15 -8 8 4 15
1 15 -5 0 -6 -6 -11 -12 -12 -7 0 -21 -2 -30 -4 -10 -2 -18 1 -18 6 0 5 5 9
10 9 22 0 9 38 -14 42 -22 4 -23 2 -16 -23 6 -20 5 -26 -6 -25 -17 3 -29 14
-29 29 -1 13 29 38 42 36 21 -4 33 2 33 17 0 19 20 14 34 -9z m246 -11 c0 -3
-4 -8 -10 -11 -5 -3 -10 -1 -10 4 0 6 5 11 10 11 6 0 10 -2 10 -4z m-744 -20
c16 -13 17 -17 5 -28 -12 -11 -13 -11 -6 2 8 13 7 13 -8 1 -15 -12 -17 -11
-17 5 0 16 -2 17 -10 4 -8 -12 -10 -11 -10 8 0 25 17 28 46 8z m867 -13 c-5
-16 -4 -15 9 1 10 12 17 15 22 8 3 -6 2 -13 -4 -17 -6 -4 -8 -10 -5 -15 3 -5
-4 -7 -15 -5 -11 2 -20 0 -20 -6 0 -5 5 -9 10 -9 7 0 7 -6 0 -20 -9 -16 -8
-19 6 -13 16 6 34 -11 34 -35 0 -10 -8 -9 -30 5 -17 10 -28 23 -26 29 3 7 2
15 -2 19 -4 3 -7 22 -7 41 0 26 4 34 17 34 12 0 16 -5 11 -17z m-216 -16 c4
-5 3 -7 -3 -5 -6 2 -22 -10 -36 -27 -29 -33 -41 -29 -44 14 -2 26 0 28 36 27
21 -1 42 -5 47 -9z m52 -4 c-40 -49 -53 -62 -61 -57 -4 3 -8 1 -8 -4 0 -5 -7
-9 -15 -9 -20 0 -19 14 5 44 l20 26 1 -24 1 -24 7 25 c4 14 13 24 19 23 7 -2
12 2 12 7 0 6 7 10 16 10 14 0 15 -2 3 -17z m299 -19 c2 -17 -3 -36 -11 -42
-10 -9 -14 -9 -14 1 0 16 -34 69 -40 63 -3 -3 4 -17 16 -32 26 -33 23 -37 -17
-23 -55 19 -29 72 33 67 26 -3 30 -8 33 -34z m808 -1 c21 -51 27 -103 12 -103
-6 0 -3 -7 8 -16 10 -8 13 -13 7 -9 -12 6 -61 -27 -123 -82 -13 -13 -35 -23
-47 -23 -18 0 -22 5 -20 29 1 16 5 27 10 24 4 -2 7 1 7 6 0 6 9 11 21 11 11 0
18 4 15 9 -3 5 4 11 16 14 18 5 19 9 9 21 -7 8 -21 16 -32 18 -16 3 -10 14 39
70 31 37 58 68 59 68 2 0 10 -17 19 -37z m62 18 c2 -15 2 -26 -2 -78 0 -15 -7
-23 -19 -23 -10 0 -16 4 -13 9 4 5 1 22 -5 38 -22 54 -20 70 10 70 18 0 28 -6
29 -16z m-1923 -1 c3 -5 -1 -10 -9 -10 -9 0 -16 5 -16 10 0 6 4 10 9 10 6 0
13 -4 16 -10z m1109 -1 c3 -3 -6 -18 -19 -34 l-24 -30 -1 37 c0 32 3 37 20 35
11 -2 22 -5 24 -8z m896 -23 c0 -28 0 -29 -20 -11 -11 10 -20 23 -20 29 0 7 9
12 20 12 15 0 20 -7 20 -30z m-1682 -11 c-12 -27 -23 -31 -34 -13 -4 6 1 17
11 25 28 20 36 16 23 -12z m252 20 c0 -4 -7 -20 -16 -36 -12 -25 -18 -28 -30
-18 -21 17 -17 38 9 49 26 11 37 12 37 5z m34 -11 c11 -28 6 -56 -15 -85 -21
-29 -39 -38 -39 -18 0 5 6 7 13 3 9 -6 8 -3 -1 8 -12 14 -9 19 15 32 l28 16
-28 -6 -28 -6 17 36 c19 39 29 44 38 20z m-571 -9 c23 -2 41 -20 33 -34 -10
-16 -26 -13 -26 4 0 9 -8 14 -21 12 -14 -1 -23 4 -24 16 -2 11 1 14 8 10 6 -4
20 -8 30 -8z m1111 -2 c3 -8 2 -12 -2 -9 -9 5 -35 -23 -40 -42 -1 -7 5 -15 14
-19 9 -3 20 -15 25 -27 10 -21 10 -21 5 1 -3 19 0 21 34 20 21 -1 36 -5 34 -9
-2 -3 1 -8 8 -10 14 -5 -68 -68 -88 -68 -14 0 -28 32 -29 70 -1 14 -6 24 -12
23 -20 -4 -22 24 -3 54 19 31 46 39 54 16z m-147 -28 c20 -8 34 -18 30 -21
-10 -10 -67 -15 -67 -5 0 5 -3 16 -6 25 -8 20 -3 20 43 1z m426 -69 c17 -36
32 -50 20 -20 -4 12 -2 15 8 12 8 -3 22 -1 33 4 13 7 16 7 12 -1 -4 -6 -2 -11
5 -11 7 0 2 -11 -11 -25 -28 -29 -61 -28 -117 5 l-38 22 30 -25 c17 -15 38
-29 48 -32 28 -10 20 -23 -23 -36 -36 -11 -42 -10 -55 7 -12 15 -14 15 -9 2 3
-10 -2 -20 -15 -27 -26 -15 -31 -14 -31 5 0 9 -5 12 -12 8 -10 -5 -10 -4 -1 6
6 7 9 18 7 24 -3 7 2 28 10 47 8 19 15 29 16 22 0 -7 7 -10 15 -7 8 4 12 10 9
15 -3 5 5 10 18 10 l23 2 -23 4 c-15 3 -22 10 -18 18 2 7 -2 19 -10 25 -11 10
-14 8 -14 -11 0 -17 -3 -20 -12 -11 -14 14 9 45 28 38 7 -3 16 -1 20 5 9 16
67 -33 87 -75z m60 56 c15 -16 24 -31 20 -35 -10 -11 -55 -8 -48 2 3 5 1 12
-5 16 -12 7 -14 45 -2 45 5 0 20 -13 35 -28z m-1044 -24 c-10 -7 -7 -7 9 -3
18 5 22 2 22 -16 0 -12 -3 -19 -7 -16 -3 4 -13 1 -21 -6 -11 -8 -14 -8 -9 0 4
6 2 13 -5 15 -10 4 -10 11 1 34 9 19 15 24 19 15 2 -7 -2 -18 -9 -23z m67 -16
c-15 -15 -16 -15 -16 5 0 12 6 23 13 26 19 6 21 -13 3 -31z m152 10 c3 -33 10
-42 27 -35 8 3 15 1 15 -5 0 -5 -14 -12 -31 -16 -28 -5 -29 -7 -15 -22 9 -8
16 -25 15 -37 -1 -20 -2 -20 -8 3 -7 25 -12 26 -65 14 -27 -6 -29 -5 -22 17 4
13 9 32 11 43 13 58 69 87 73 38z m-293 -2 c17 -7 14 -9 -13 -9 -20 -1 -31 3
-27 9 7 12 13 12 40 0z m695 -5 c0 -20 -13 -25 -28 -12 -11 8 -13 8 -9 0 5 -7
0 -9 -13 -6 -22 6 -27 19 -8 25 23 8 58 4 58 -7z m533 1 c7 -17 -1 -26 -22
-25 -12 0 -11 3 4 9 18 8 18 9 -5 9 -20 1 -22 3 -10 11 20 13 27 12 33 -4z
m-1057 -62 c-3 -7 -12 -11 -21 -8 -20 8 -19 24 3 24 14 0 14 2 3 9 -13 8 -13
12 0 27 13 16 14 15 17 -10 2 -15 1 -34 -2 -42z m739 29 c-4 -21 -7 -48 -8
-60 -3 -33 -17 -16 -17 21 0 18 3 36 8 40 4 4 8 12 8 17 2 16 4 19 9 19 3 0 3
-17 0 -37z m490 7 c8 -13 -15 -13 -35 0 -12 8 -11 10 7 10 12 0 25 -4 28 -10z
m-1323 -20 c15 0 17 -4 10 -17 -5 -10 -7 -25 -4 -33 2 -8 1 -12 -3 -8 -9 8
-35 -9 -35 -22 0 -4 7 -11 16 -14 14 -5 15 -4 5 8 -8 10 -9 16 -1 21 5 3 10 0
10 -7 0 -8 5 -6 11 5 5 9 8 21 5 25 -3 4 3 13 13 19 15 10 25 7 52 -16 l33
-28 -39 -22 c-37 -20 -32 -22 13 -4 15 6 15 5 4 -10 -8 -9 -10 -22 -6 -28 4
-7 3 -9 -4 -5 -6 3 -13 2 -17 -4 -3 -5 -16 -8 -28 -6 -12 3 -26 5 -32 6 -5 0
-1 8 10 16 14 11 15 15 5 14 -34 -5 -49 1 -55 21 -4 12 -10 18 -14 13 -12 -17
-38 -14 -56 6 -17 19 -17 22 -3 36 9 9 30 17 47 18 26 1 30 4 25 21 -5 16 -4
18 7 8 7 -7 21 -13 31 -13z m656 -5 c11 -24 11 -25 -11 -15 -22 11 -22 11 2
-9 13 -12 21 -27 17 -36 -7 -18 -26 -20 -26 -2 0 9 -2 9 -9 -1 -5 -8 -7 2 -5
25 2 21 3 44 3 51 1 20 17 13 29 -13z m520 -31 l3 -49 -40 40 c-23 21 -41 44
-41 50 0 5 17 10 37 9 l38 -1 3 -49z m65 33 c2 -7 1 -23 -3 -37 l-6 -25 -17
30 c-9 17 -16 26 -17 22 0 -5 4 -16 10 -26 6 -13 5 -24 -5 -37 -13 -17 -14
-16 -15 23 0 23 5 45 10 48 6 4 8 10 5 15 -3 4 4 6 14 3 11 -3 21 -10 24 -16z
m285 -68 l21 -39 -27 -16 c-15 -8 -19 -13 -10 -10 9 3 19 -2 23 -12 3 -9 3
-13 -1 -9 -4 4 -18 -2 -30 -14 -13 -12 -29 -19 -37 -16 -10 4 -13 0 -10 -13 7
-25 -54 -47 -69 -25 -14 19 -8 28 9 14 11 -10 14 -10 9 -1 -5 8 -1 12 11 13
16 0 16 1 -1 8 -22 9 -17 13 37 31 21 6 36 14 34 16 -2 2 -23 -3 -47 -11 -24
-8 -45 -13 -47 -11 -2 2 8 34 22 71 14 38 23 70 21 72 -2 2 -16 -30 -31 -72
-15 -41 -29 -75 -32 -75 -9 0 -83 53 -83 60 0 4 32 33 72 64 46 37 74 53 78
46 5 -8 10 -6 14 7 7 16 10 15 30 -11 13 -15 33 -46 44 -67z m-728 41 c0 -31
-3 -38 -15 -33 -10 3 -15 1 -13 -7 5 -21 -28 -36 -46 -21 -25 21 -19 38 27 70
23 17 43 30 45 31 1 0 2 -18 2 -40z m290 10 c10 17 84 -75 76 -95 -3 -9 -2
-13 4 -10 6 4 10 -14 10 -47 l0 -53 -20 25 c-11 14 -20 29 -20 34 0 5 -2 7 -5
4 -3 -3 4 -22 16 -42 11 -20 17 -36 12 -36 -5 0 -9 -9 -9 -19 0 -11 4 -17 9
-14 5 3 6 -4 2 -17 -4 -14 -3 -20 3 -16 5 3 12 -1 16 -9 9 -24 -18 -17 -44 11
-21 21 -22 27 -10 34 14 9 7 14 -14 11 -5 -1 -6 5 -2 14 3 9 2 13 -4 10 -6 -4
-11 8 -11 27 l-1 33 -7 -30 c-3 -16 -11 -29 -16 -28 -6 0 -9 -3 -7 -8 5 -20
-57 -9 -72 13 -11 15 -16 18 -16 8 0 -10 -7 -7 -21 10 -11 14 -17 19 -13 11
18 -35 12 -61 -16 -76 l-29 -15 9 30 c5 19 5 28 -1 25 -5 -4 -9 0 -9 7 0 10
-2 10 -9 -1 -6 -10 -17 -1 -41 33 -24 36 -29 50 -20 60 12 16 53 29 44 15 -3
-5 -11 -9 -19 -9 -8 0 -16 -3 -19 -8 -2 -4 11 -7 30 -6 24 1 41 -5 55 -20 l20
-21 -10 28 c-16 42 -14 46 19 37 21 -6 28 -5 24 2 -4 6 2 6 15 -1 11 -7 21
-14 21 -17 0 -3 -4 -2 -10 1 -12 7 -12 3 -4 -19 8 -21 22 -20 26 2 3 12 10 6
26 -23 11 -22 21 -36 22 -32 0 5 -5 17 -11 29 -15 28 -21 68 -10 68 5 0 13 -4
16 -10 3 -5 15 -10 26 -10 10 0 19 -5 19 -12 0 -6 2 -9 5 -7 2 3 0 22 -6 44
-7 23 -14 33 -18 26 -6 -8 -15 -8 -39 0 -18 6 -32 15 -32 19 0 14 55 49 59 38
2 -7 6 -6 11 2z m-970 -15 c0 -9 -6 -12 -15 -9 -8 4 -12 10 -9 15 8 14 24 10
24 -6z m90 -17 c0 -26 -17 -40 -39 -33 -35 11 -24 25 37 44 1 1 2 -5 2 -11z
m-303 -60 c-3 -10 0 -18 5 -18 6 0 17 -8 24 -17 13 -17 14 -17 8 0 -4 11 -1
17 10 17 9 0 15 -6 14 -12 -2 -8 5 -12 16 -10 10 2 25 0 35 -3 13 -5 12 -9 -9
-20 -17 -9 -29 -10 -37 -3 -9 8 -13 7 -13 -3 0 -11 -2 -11 -10 1 -7 10 -10 11
-10 2 0 -9 -7 -9 -31 3 -23 13 -29 20 -23 37 4 12 2 18 -4 14 -10 -6 -23 50
-14 59 11 10 43 -30 39 -47z m781 18 c-15 -9 -15 -12 4 -28 19 -16 21 -16 48
4 16 11 36 18 44 15 27 -11 17 -26 -14 -22 -16 2 -33 -1 -36 -7 -4 -6 -3 -8 4
-5 5 4 20 3 32 -1 l22 -8 -25 -30 -25 -29 -22 20 c-57 52 -74 102 -34 102 16
0 17 -1 2 -11z m388 -17 c3 -6 -5 -3 -20 6 -14 10 -26 19 -26 22 0 7 39 -17
46 -28z m-103 14 c-7 -2 -19 -2 -25 0 -7 3 -2 5 12 5 14 0 19 -2 13 -5z m271
-9 c18 -7 12 -25 -26 -78 l-28 -39 0 49 c0 62 16 83 54 68z m-1003 -27 c3 -5
4 -20 1 -34 -4 -21 -6 -23 -14 -9 -15 27 -18 56 -5 53 7 -1 15 -6 18 -10z
m-75 -40 c-6 -29 -5 -30 4 -8 6 14 8 31 6 38 -3 7 1 13 9 13 13 0 34 -50 32
-80 0 -18 -47 -21 -59 -5 -12 16 -10 87 3 80 6 -4 8 -21 5 -38z m1162 18 c38
-32 57 -81 35 -89 -8 -3 -24 -6 -36 -6 -20 1 -20 3 8 27 l30 25 -37 -22 c-36
-20 -38 -20 -39 -3 -1 16 -2 16 -6 1 -2 -10 -9 -18 -14 -18 -5 0 -9 -9 -9 -19
0 -25 -16 -36 -23 -17 -3 8 -1 17 6 20 7 2 4 5 -7 5 -13 1 -16 5 -9 14 5 6 9
24 8 39 0 15 2 25 6 22 4 -2 10 5 14 16 4 11 11 18 16 15 5 -4 9 -1 9 4 0 18
16 13 48 -14z m286 -78 l18 -29 -24 7 c-22 7 -22 6 -4 -7 16 -13 17 -16 3 -21
-12 -4 -20 5 -31 36 -8 23 -15 34 -15 24 -1 -28 -21 -9 -22 21 0 15 -3 21 -6
15 -5 -15 -23 -17 -23 -4 0 5 12 13 27 18 30 10 35 6 77 -60z m-769 26 l26
-38 -23 -19 c-18 -15 -19 -18 -4 -12 17 6 46 -8 46 -23 0 -7 -64 -41 -77 -41
-4 0 8 14 27 31 26 23 22 21 -12 -6 -27 -20 -52 -33 -58 -30 -6 4 -8 10 -5 15
3 5 1 11 -4 15 -6 3 -8 12 -5 19 3 8 1 17 -5 21 -6 3 -11 13 -11 21 0 8 5 12
10 9 6 -3 10 -1 10 6 0 6 8 9 20 6 11 -3 18 -1 14 4 -3 5 -12 9 -20 9 -18 0
-18 9 3 32 24 27 39 22 68 -19z m-742 -25 c-8 -17 -22 -7 -32 24 l-11 31 23
-24 c13 -13 22 -27 20 -31z m1120 22 c-3 -11 -10 -23 -16 -27 -5 -3 -8 -2 -5
3 3 5 8 17 11 27 9 24 16 22 10 -3z m277 -24 c0 -2 -3 -12 -6 -21 -6 -13 -9
-14 -15 -3 -6 9 -8 5 -7 -12 3 -21 -1 -25 -20 -23 -13 2 -21 -1 -17 -6 3 -5 0
-13 -6 -16 -5 -4 -8 -13 -5 -21 3 -8 -1 -14 -10 -14 -8 0 -12 5 -9 10 3 6 1
10 -4 10 -6 0 -11 5 -11 11 0 6 7 9 15 6 8 -4 17 -2 20 3 4 6 -3 10 -14 10
-12 0 -21 5 -21 11 0 6 7 8 16 5 14 -5 15 -4 4 9 -14 17 -14 17 15 33 19 11
75 17 75 8z m40 -21 c0 -15 -38 -40 -47 -31 -3 3 2 17 11 31 17 26 36 26 36 0z
m-469 -19 c-9 -11 -7 -12 11 -9 16 3 32 -5 52 -26 33 -35 28 -51 -18 -51 -26
0 -39 7 -60 34 -14 19 -26 39 -26 44 0 6 -6 13 -12 15 -7 3 4 6 26 6 31 1 36
-2 27 -13z m283 5 c-8 -8 -54 -7 -54 1 0 5 13 7 30 6 16 -1 27 -4 24 -7z
m-313 -57 c11 -18 18 -38 15 -43 -4 -5 0 -11 6 -14 7 -2 10 -7 7 -11 -6 -6
-79 31 -79 40 0 2 12 -1 28 -7 20 -8 24 -7 16 1 -7 7 -23 13 -37 13 -14 1 -23
5 -21 8 6 10 -26 20 -38 12 -7 -3 -8 -1 -4 5 4 7 2 12 -4 12 -22 0 1 20 33 28
37 10 48 4 78 -44z m189 41 c9 -11 16 -12 25 -5 12 10 54 11 89 2 18 -4 18 -6
-5 -18 l-24 -14 28 4 c15 3 25 1 22 -5 -4 -5 -18 -10 -33 -10 -21 -1 -22 -2
-7 -6 34 -8 36 -18 4 -19 -27 -1 -30 1 -25 22 5 18 3 22 -8 18 -8 -3 -21 -2
-28 2 -7 5 -17 9 -23 9 -18 2 -45 17 -45 26 0 14 16 11 30 -6z m-587 -56 c-3
-9 -18 -23 -35 -30 -21 -9 -26 -14 -16 -20 10 -7 10 -9 0 -9 -21 0 -24 27 -6
62 29 57 36 62 49 37 7 -12 10 -30 8 -40z m588 25 c22 -11 30 -21 26 -34 -3
-13 0 -17 9 -13 8 3 14 -1 14 -11 0 -20 -1 -20 -45 1 -19 9 -35 22 -35 29 0 7
-3 19 -6 28 -8 20 -1 20 37 0z m-383 -41 c-31 -31 -40 -35 -50 -24 -10 11 -10
14 0 18 6 3 9 10 6 15 -4 7 -2 8 4 4 6 -4 24 0 39 8 41 22 41 20 1 -21z m354
-22 c3 9 13 7 35 -6 18 -11 29 -24 26 -32 -3 -7 1 -13 10 -13 27 0 27 -28 0
-35 -14 -3 -27 -5 -28 -3 -1 2 -10 18 -19 36 -9 17 -19 32 -22 32 -2 0 2 -13
10 -29 9 -16 13 -31 10 -34 -3 -2 -30 9 -60 25 -41 22 -52 33 -45 42 6 7 7 17
3 21 -4 5 -2 6 3 3 6 -3 19 -2 30 2 13 5 24 3 31 -7 9 -10 13 -11 16 -2z m168
-6 c0 -3 -3 -4 -7 -4 -20 3 -24 -2 -14 -15 9 -11 6 -15 -15 -20 -14 -4 -28 -5
-31 -2 -7 6 14 41 24 41 4 0 7 6 7 12 -1 9 3 10 17 2 11 -5 19 -12 19 -14z
m48 13 c-4 -17 -20 -28 -31 -21 -9 5 11 33 24 33 5 0 8 -6 7 -12z m-788 -8 c0
-5 -5 -10 -11 -10 -5 0 -7 5 -4 10 3 6 8 10 11 10 2 0 4 -4 4 -10z m573 -89
l32 -20 -25 -9 c-34 -13 -61 -1 -82 36 l-17 30 31 -8 c16 -5 44 -18 61 -29z
m195 10 c-1 -9 1 -22 5 -28 5 -7 4 -13 -2 -13 -13 0 -19 10 -25 43 -3 20 -1
24 10 20 8 -3 14 -13 12 -22z m-264 -54 c5 -29 -11 -37 -20 -12 -4 8 -10 12
-15 9 -5 -3 -9 14 -9 37 l0 42 20 -25 c10 -14 21 -37 24 -51z m193 16 c11 -27
11 -27 10 -3 -3 35 30 40 39 5 4 -15 2 -31 -5 -38 -7 -7 -11 -7 -11 0 0 5 -10
9 -22 6 -13 -2 -34 6 -48 17 -21 17 -23 21 -10 30 24 16 35 12 47 -17z m-53
-35 c12 -16 16 -18 12 -5 -6 20 2 21 27 3 48 -37 -7 -45 -73 -11 -25 13 -30
19 -19 26 22 14 35 11 53 -13z m-140 -76 c-24 -5 -64 18 -64 37 0 14 2 14 10
1 8 -13 10 -12 10 4 0 17 4 16 31 -10 25 -24 27 -30 13 -32z m38 42 c16 -16
18 -16 24 0 8 20 27 20 64 1 40 -20 38 -31 -5 -33 -19 -1 -34 2 -34 6 3 20 -2
32 -12 27 -6 -4 -7 -14 -4 -24 14 -33 13 -50 -2 -62 -12 -11 -14 -10 -13 2 4
27 0 45 -15 65 -15 19 -15 19 -8 0 6 -19 4 -18 -25 3 -18 12 -32 24 -32 27 0
11 46 2 62 -12z m-129 -18 c3 3 8 0 12 -7 9 -14 -44 -4 -60 12 -7 7 -1 7 16 0
15 -5 29 -7 32 -5z m-60 -33 c-4 -10 -8 -12 -11 -5 -4 14 -32 -9 -32 -27 0 -6
-4 -11 -10 -11 -18 0 -10 29 12 44 30 21 49 21 41 -1z m-123 -47 c0 -2 -8 -10
-18 -19 -16 -15 -18 -15 -18 1 0 10 8 19 18 19 10 1 18 0 18 -1z"/>
<path d="M808 2043 c7 -3 16 -2 19 1 4 3 -2 6 -13 5 -11 0 -14 -3 -6 -6z"/>
<path d="M1132 2031 c-6 -17 -9 -31 -6 -31 7 0 25 52 20 57 -2 2 -8 -10 -14
-26z"/>
<path d="M1432 1880 c0 -14 2 -19 5 -12 2 6 2 18 0 25 -3 6 -5 1 -5 -13z"/>
<path d="M1112 1910 c0 -14 2 -19 5 -12 2 6 2 18 0 25 -3 6 -5 1 -5 -13z"/>
<path d="M418 1833 c6 -2 18 -2 25 0 6 3 1 5 -13 5 -14 0 -19 -2 -12 -5z"/>
<path d="M368 1823 c6 -2 18 -2 25 0 6 3 1 5 -13 5 -14 0 -19 -2 -12 -5z"/>
<path d="M273 1786 c18 -14 18 -14 0 -19 -14 -4 -13 -5 5 -6 13 0 20 -5 17
-11 -5 -9 8 -14 19 -7 3 1 22 -14 42 -33 l38 -35 -33 39 c-18 21 -30 40 -27
43 2 2 26 11 53 18 26 7 41 14 33 14 -8 1 -30 -3 -48 -8 -17 -5 -32 -6 -32 -1
0 4 -9 6 -19 3 -10 -3 -30 0 -42 7 -22 10 -22 10 -6 -4z"/>
<path d="M828 1863 c7 -3 16 -2 19 1 4 3 -2 6 -13 5 -11 0 -14 -3 -6 -6z"/>
<path d="M926 1791 c-19 -7 -18 -8 4 -14 26 -7 43 0 35 14 -7 10 -13 10 -39 0z"/>
<path d="M1120 1574 c0 -6 7 -19 16 -30 14 -18 14 -18 3 6 -14 31 -19 36 -19
24z"/>
<path d="M1041 1554 c0 -11 3 -14 6 -6 3 7 2 16 -1 19 -3 4 -6 -2 -5 -13z"/>
<path d="M1578 1653 c7 -3 16 -2 19 1 4 3 -2 6 -13 5 -11 0 -14 -3 -6 -6z"/>
<path d="M530 1690 c-9 -6 -10 -10 -3 -10 6 0 15 5 18 10 8 12 4 12 -15 0z"/>
<path d="M1478 1653 c6 -2 18 -2 25 0 6 3 1 5 -13 5 -14 0 -19 -2 -12 -5z"/>
<path d="M1400 1556 c0 -2 8 -10 18 -17 15 -13 16 -12 3 4 -13 16 -21 21 -21
13z"/>
<path d="M468 1578 c5 -5 16 -8 23 -6 8 3 3 7 -10 11 -17 4 -21 3 -13 -5z"/>
<path d="M970 1490 c-8 -5 -10 -10 -5 -10 6 0 17 5 25 10 8 5 11 10 5 10 -5 0
-17 -5 -25 -10z"/>
<path d="M1831 1494 c0 -11 3 -14 6 -6 3 7 2 16 -1 19 -3 4 -6 -2 -5 -13z"/>
<path d="M635 1490 c-3 -6 1 -7 9 -4 18 7 21 14 7 14 -6 0 -13 -4 -16 -10z"/>
<path d="M640 1470 c-9 -6 -10 -10 -3 -10 6 0 15 5 18 10 8 12 4 12 -15 0z"/>
<path d="M1583 1474 l-28 -26 33 22 c29 20 39 30 28 30 -3 0 -18 -12 -33 -26z"/>
<path d="M1580 1400 c28 -22 40 -25 40 -9 0 5 -4 8 -9 5 -5 -3 -14 1 -21 9 -7
8 -18 15 -24 15 -6 0 0 -9 14 -20z"/>
<path d="M790 1430 c-20 -6 -21 -8 -5 -8 11 0 31 4 45 8 20 6 21 8 5 8 -11 0
-31 -4 -45 -8z"/>
<path d="M728 1413 c6 -2 18 -2 25 0 6 3 1 5 -13 5 -14 0 -19 -2 -12 -5z"/>
<path d="M753 1383 c9 -2 25 -2 35 0 9 3 1 5 -18 5 -19 0 -27 -2 -17 -5z"/>
<path d="M818 1373 c6 -2 18 -2 25 0 6 3 1 5 -13 5 -14 0 -19 -2 -12 -5z"/>
<path d="M810 1350 c-12 -8 -10 -10 8 -10 13 0 20 4 17 10 -7 12 -6 12 -25 0z"/>
<path d="M760 1330 c-8 -5 -10 -10 -5 -10 6 0 17 5 25 10 8 5 11 10 5 10 -5 0
-17 -5 -25 -10z"/>
<path d="M1076 1351 c-3 -4 6 -6 19 -3 14 2 25 6 25 8 0 8 -39 4 -44 -5z"/>
<path d="M1440 1130 c-8 -5 -10 -10 -5 -10 6 0 17 5 25 10 8 5 11 10 5 10 -5
0 -17 -5 -25 -10z"/>
<path d="M2142 1290 c0 -14 2 -19 5 -12 2 6 2 18 0 25 -3 6 -5 1 -5 -13z"/>
<path d="M1341 1314 c0 -11 3 -14 6 -6 3 7 2 16 -1 19 -3 4 -6 -2 -5 -13z"/>
<path d="M1395 1280 c-13 -5 -14 -9 -5 -9 8 0 24 4 35 9 13 5 14 9 5 9 -8 0
-24 -4 -35 -9z"/>
<path d="M1314 1255 c-1 -15 5 -21 20 -23 16 -1 21 4 21 21 0 30 -40 31 -41 2z"/>
<path d="M1895 1235 c2 -13 -6 -41 -17 -62 -15 -28 -16 -34 -5 -24 9 7 19 21
22 30 3 10 17 23 31 30 14 6 22 16 18 22 -3 6 0 15 7 20 9 6 10 9 2 9 -6 0
-15 -5 -18 -10 -4 -7 -13 -7 -24 0 -15 8 -18 5 -16 -15z"/>
<path d="M1911 1164 c0 -11 3 -14 6 -6 3 7 2 16 -1 19 -3 4 -6 -2 -5 -13z"/>
<path d="M720 1261 c0 -6 4 -13 10 -16 6 -3 7 1 4 9 -7 18 -14 21 -14 7z"/>
<path d="M805 1050 c-13 -5 -14 -9 -5 -9 8 0 24 4 35 9 13 5 14 9 5 9 -8 0
-24 -4 -35 -9z"/>
<path d="M807 1019 c7 -7 15 -10 18 -7 3 3 -2 9 -12 12 -14 6 -15 5 -6 -5z"/>
<path d="M577 993 c-4 -3 -7 -11 -7 -17 0 -6 5 -5 12 2 6 6 9 14 7 17 -3 3 -9
2 -12 -2z"/>
<path d="M1370 950 c0 -5 7 -7 15 -4 8 4 15 8 15 10 0 2 -7 4 -15 4 -8 0 -15
-4 -15 -10z"/>
<path d="M1778 923 c7 -3 16 -2 19 1 4 3 -2 6 -13 5 -11 0 -14 -3 -6 -6z"/>
<path d="M1532 850 c0 -14 2 -19 5 -12 2 6 2 18 0 25 -3 6 -5 1 -5 -13z"/>
<path d="M1620 854 c1 -29 35 -70 45 -54 5 9 4 11 -3 6 -8 -5 -12 1 -12 17 0
14 -7 30 -15 37 -12 10 -15 9 -15 -6z"/>
<path d="M1568 773 c7 -3 16 -2 19 1 4 3 -2 6 -13 5 -11 0 -14 -3 -6 -6z"/>
<path d="M1361 864 c0 -11 3 -14 6 -6 3 7 2 16 -1 19 -3 4 -6 -2 -5 -13z"/>
<path d="M1430 750 c-23 -7 -23 -8 -3 -9 12 -1 25 4 28 9 3 6 5 10 3 9 -2 -1
-14 -5 -28 -9z"/>
<path d="M1731 704 c0 -11 3 -14 6 -6 3 7 2 16 -1 19 -3 4 -6 -2 -5 -13z"/>
<path d="M1900 579 c0 -5 5 -7 10 -4 6 3 10 8 10 11 0 2 -4 4 -10 4 -5 0 -10
-5 -10 -11z"/>
<path d="M397 1299 c4 -13 8 -18 11 -10 2 7 -1 18 -6 23 -8 8 -9 4 -5 -13z"/>
<path d="M998 1123 c6 -2 18 -2 25 0 6 3 1 5 -13 5 -14 0 -19 -2 -12 -5z"/>
<path d="M960 1070 c12 -8 10 -10 -10 -11 -18 -1 -20 -3 -7 -6 10 -3 26 -2 35
2 14 5 14 7 2 15 -8 6 -19 10 -25 10 -5 0 -3 -5 5 -10z"/>
<path d="M1020 1061 c-15 -4 -25 -14 -25 -25 0 -9 -11 -26 -25 -36 -14 -11
-21 -20 -16 -20 6 0 -3 -14 -20 -32 -34 -38 -7 -19 50 35 22 21 42 33 44 28 2
-6 8 -11 13 -11 6 0 7 4 4 10 -3 5 2 21 11 35 18 27 13 30 -36 16z"/>
<path d="M1181 1014 c0 -11 3 -14 6 -6 3 7 2 16 -1 19 -3 4 -6 -2 -5 -13z"/>
<path d="M1032 942 c-2 -44 -6 -54 -24 -62 -13 -5 -17 -9 -10 -9 18 -1 56 -39
81 -81 12 -19 21 -30 21 -25 0 6 -7 20 -15 31 -8 12 -11 24 -8 28 3 3 1 6 -5
6 -16 0 -9 39 9 51 10 7 6 8 -13 5 -26 -4 -27 -3 -31 52 l-3 57 -2 -53z"/>
<path d="M1204 853 c9 -17 20 -34 25 -38 15 -9 23 13 12 32 -8 14 -11 15 -11
3 0 -10 -7 -7 -21 10 l-20 25 15 -32z"/>
<path d="M1266 864 c-3 -9 -2 -23 4 -32 7 -14 9 -10 10 16 0 35 -5 41 -14 16z"/>
<path d="M960 850 c-21 -7 -21 -8 -5 -9 11 0 27 4 35 9 18 11 5 11 -30 0z"/>
<path d="M2286 843 c-6 -14 -5 -15 5 -6 7 7 10 15 7 18 -3 3 -9 -2 -12 -12z"/>
<path d="M1129 825 c29 -14 55 -24 58 -22 2 3 -15 12 -39 22 -69 28 -78 27
-19 0z"/>
<path d="M895 729 c22 -10 49 -17 59 -15 11 3 15 1 10 -4 -5 -4 -20 -10 -34
-13 -21 -3 -19 -5 8 -6 18 0 31 -5 28 -10 -3 -4 6 -6 19 -3 16 3 25 11 25 23
0 12 -5 16 -14 13 -8 -3 -17 -1 -20 5 -4 6 -13 8 -20 5 -8 -3 -30 2 -51 10
-52 22 -59 19 -10 -5z"/>
<path d="M1670 580 c-9 -6 -10 -10 -3 -10 6 0 15 5 18 10 8 12 4 12 -15 0z"/>
<path d="M1254 514 c1 -16 7 -24 19 -24 23 0 22 36 -2 43 -15 3 -18 -1 -17
-19z"/>
</g>
</svg>
